<?xml version="1.0" encoding="UTF-8" standalone="no"?>
<!-- Created with Inkscape (http://www.inkscape.org/) -->

<svg
   version="1.1"
   id="svg66264"
   width="130.47714"
   height="39.155464"
   viewBox="0 0 130.47714 39.155464"
   sodipodi:docname="logo.svg"
   inkscape:version="1.1.1 (50ffc5b540, 2022-01-11)"
   inkscape:export-filename="/home/vinicius/Documents/RESEARCH/WorkshopPython/Bigspring/static/images/logo.png"
   inkscape:export-xdpi="149.97"
   inkscape:export-ydpi="149.97"
   xmlns:inkscape="http://www.inkscape.org/namespaces/inkscape"
   xmlns:sodipodi="http://sodipodi.sourceforge.net/DTD/sodipodi-0.dtd"
   xmlns="http://www.w3.org/2000/svg"
   xmlns:svg="http://www.w3.org/2000/svg">
  <defs
     id="defs66268" />
  <sodipodi:namedview
     id="namedview66266"
     pagecolor="#ffffff"
     bordercolor="#666666"
     borderopacity="1.0"
     inkscape:pageshadow="2"
     inkscape:pageopacity="0.0"
     inkscape:pagecheckerboard="0"
     showgrid="false"
     inkscape:zoom="2.9999999"
     inkscape:cx="81.500002"
     inkscape:cy="25.166667"
     inkscape:window-width="1920"
     inkscape:window-height="1023"
     inkscape:window-x="0"
     inkscape:window-y="27"
     inkscape:window-maximized="1"
     inkscape:current-layer="g66270" />
  <g
     inkscape:groupmode="layer"
     inkscape:label="Image"
     id="g66270"
     transform="translate(-0.27766991,0.02679443)">
    <text
       xml:space="preserve"
       style="font-weight:bold;font-size:8px;line-height:1.25;font-family:Roboto;-inkscape-font-specification:'Roboto Bold';word-spacing:0px;fill:#3b77ab;fill-opacity:1;stroke-width:0.0705586"
       x="7.433435"
       y="11.521779"
       id="text18809"><tspan
         sodipodi:role="line"
         id="tspan18807"
         x="7.433435"
         y="11.521779"
         style="font-style:normal;font-variant:normal;font-weight:600;font-stretch:normal;font-size:8px;font-family:'Roboto Slab';-inkscape-font-specification:'Roboto Slab Semi-Bold';fill:#3b77ab;fill-opacity:1;stroke-width:0.0705586">WPDB</tspan></text>
    <path
       style="fill:none;stroke:#3b77ab;stroke-width:1;stroke-linecap:butt;stroke-linejoin:miter;stroke-miterlimit:4;stroke-dasharray:2, 2;stroke-dashoffset:0;stroke-opacity:1"
       d="m 8.3183139,34.761298 2.5594991,-0.09369 c 0,0 9.371627,-0.472612 4.272362,-7.253531"
       id="path37510"
       sodipodi:nodetypes="ccc" />
    <path
       style="fill:none;stroke:#3b77ab;stroke-width:1;stroke-linecap:butt;stroke-linejoin:miter;stroke-miterlimit:4;stroke-dasharray:2, 2;stroke-dashoffset:0;stroke-opacity:1"
       d="m 29.093942,16.077473 -12.928161,0.07521 c 0,0 -8.0038171,3.403392 -2.003802,10.066152"
       id="path37512"
       sodipodi:nodetypes="ccc" />
    <g
       id="g66434"
       transform="matrix(1.1909227,0,0,1.1909227,-6.7115419,-3.9098994)">
      <path
         style="fill:#3b77ab;fill-opacity:1;stroke:#3b77ab;stroke-width:0.0305215;stroke-miterlimit:4;stroke-dasharray:0.00305215, 0.00305215;stroke-dashoffset:0;stroke-opacity:1"
         d="m 30.622709,16.527608 c 0,-0.01484 0.04307,-0.218391 0.06136,-0.290017 0.05619,-0.220048 0.203218,-0.491911 0.381548,-0.705306 0.03803,-0.04559 0.118075,-0.130002 0.177655,-0.187608 0.295677,-0.285711 0.622429,-0.469077 0.977514,-0.548549 0.248884,-0.05566 0.457919,-0.07752 0.739045,-0.07726 0.303641,3.04e-4 0.499398,0.0273 0.707532,0.0974 0.661482,0.22295 1.150425,0.659136 1.375455,1.22706 0.02796,0.0705 0.08852,0.259525 0.149879,0.467845 l 0.0066,0.02399 H 32.9108 c -1.276609,0 -2.288511,-0.004 -2.288511,-0.008 z"
         id="path59893" />
      <path
         style="fill:#3b77ab;fill-opacity:1;stroke:#3b77ab;stroke-width:0.0305215;stroke-miterlimit:4;stroke-dasharray:0.00305215, 0.00305215;stroke-dashoffset:0;stroke-opacity:1"
         d="m 31.122147,14.688589 c -0.149733,-0.237726 -0.207829,-0.33522 -0.252091,-0.42312 l -0.03141,-0.06228 0.01577,-0.02929 c 0.05036,-0.09343 0.397265,-0.365143 0.487498,-0.381787 0.04731,-0.0093 0.140801,0.0273 0.189886,0.07315 0.10204,0.09541 0.425081,0.56791 0.425081,0.621898 0,0.02054 -0.04135,0.05447 -0.139887,0.114762 -0.09634,0.05884 -0.540783,0.29386 -0.555771,0.29386 -0.0053,0 -0.06732,-0.09316 -0.139132,-0.2071 z"
         id="path59932" />
      <path
         style="fill:#3b77ab;fill-opacity:1;stroke:#3b77ab;stroke-width:0.0305215;stroke-miterlimit:4;stroke-dasharray:0.00305215, 0.00305215;stroke-dashoffset:0;stroke-opacity:1"
         d="m 32.67474,14.051994 c 0.0053,-0.386359 0.01444,-0.486146 0.05036,-0.582063 0.02372,-0.06334 0.07395,-0.11887 0.128676,-0.142485 0.09237,-0.03975 0.269213,-0.04347 0.384425,-0.008 0.04545,0.01392 0.06533,0.02637 0.105352,0.06653 0.109991,0.109991 0.130796,0.276289 0.100185,0.799209 -0.0066,0.119929 -0.01325,0.220962 -0.01325,0.224553 0,0.004 -0.171506,0.0066 -0.3809,0.0066 h -0.380727 z"
         id="path59971" />
      <path
         style="fill:#3b77ab;fill-opacity:1;stroke:#3b77ab;stroke-width:0.0305215;stroke-miterlimit:4;stroke-dasharray:0.00305215, 0.00305215;stroke-dashoffset:0;stroke-opacity:1"
         d="m 34.654309,15.017793 c -0.01961,-0.01444 -0.04612,-0.04002 -0.05897,-0.05685 -0.03525,-0.04612 -0.134812,-0.112509 -0.26684,-0.17788 -0.178729,-0.08852 -0.235049,-0.132652 -0.235049,-0.184387 0,-0.107341 0.475332,-0.73556 0.593592,-0.784553 0.02187,-0.0093 0.03485,-0.008 0.08693,0.0093 0.164827,0.05301 0.465884,0.276859 0.49631,0.369052 0.0093,0.02809 0.008,0.03591 -0.02173,0.09382 -0.121123,0.240536 -0.4926,0.75789 -0.544176,0.75789 -0.008,0 -0.03048,-0.01193 -0.04996,-0.02611 z"
         id="path60010" />
      <path
         style="fill:#3b77ab;fill-opacity:1;stroke:#3b77ab;stroke-width:0.0305215;stroke-miterlimit:4;stroke-dasharray:0.00305215, 0.00305215;stroke-dashoffset:0;stroke-opacity:1"
         d="m 37.321904,18.535497 c -0.01789,-0.008 -0.04492,-0.06904 -0.161833,-0.365289 -0.06056,-0.15347 -0.127483,-0.308663 -0.148686,-0.344867 -0.0493,-0.08402 -0.129736,-0.159566 -0.215012,-0.201853 -0.07527,-0.03737 -0.355694,-0.155273 -0.369118,-0.155273 -0.0053,0 -0.0819,0.07395 -0.170778,0.164271 -0.100052,0.101642 -0.195744,0.189608 -0.251057,0.230795 -0.152543,0.113569 -0.309432,0.197771 -0.399916,0.214681 -0.04863,0.0093 -0.05168,0.004 -0.06851,-0.107738 -0.02624,-0.174594 -0.03446,-0.469462 -0.03446,-1.230148 0,-0.994621 0.01895,-1.330266 0.07514,-1.329762 0.02611,2.78e-4 0.10363,0.02558 0.158678,0.05181 0.142776,0.06812 0.306464,0.19585 0.558276,0.435564 0.0811,0.07726 0.150502,0.140417 0.15416,0.140417 0.0106,0 0.340587,-0.191623 0.383735,-0.223136 0.06387,-0.04665 0.156956,-0.151231 0.202317,-0.227336 0.02306,-0.03856 0.07925,-0.162018 0.124833,-0.274235 0.136084,-0.334597 0.174938,-0.386969 0.25922,-0.349241 0.08017,0.03591 0.08958,0.07885 0.05049,0.229258 -0.02942,0.112774 -0.120592,0.364043 -0.183154,0.504593 -0.09356,0.209963 -0.161435,0.276647 -0.444098,0.436027 -0.231007,0.130266 -0.263196,0.174514 -0.219385,0.301666 0.0432,0.125496 0.05579,0.337858 0.03035,0.513684 -0.01603,0.110786 -0.01656,0.214734 -0.0013,0.251243 0.01736,0.04135 0.08667,0.09926 0.189648,0.158121 0.254132,0.145255 0.342655,0.231114 0.442296,0.428978 0.05393,0.107075 0.229841,0.560144 0.248831,0.640902 0.01193,0.04837 -0.06427,0.102967 -0.150741,0.108665 -0.02677,0.0013 -0.05367,9.81e-4 -0.05977,-0.0013 z"
         id="path60049" />
      <path
         style="fill:#3b77ab;fill-opacity:1;stroke:#3b77ab;stroke-width:0.0305215;stroke-miterlimit:4;stroke-dasharray:0.00305215, 0.00305215;stroke-dashoffset:0;stroke-opacity:1"
         d="m 34.636419,19.652208 c -0.108401,-0.113304 -0.336148,-0.408145 -0.479335,-0.62052 l -0.07461,-0.110654 0.03379,-0.02902 c 0.07103,-0.06109 0.64167,-0.43025 0.663403,-0.429296 0.01193,5.04e-4 0.282146,0.442309 0.345159,0.564319 0.06003,0.116087 0.09528,0.204358 0.106943,0.267053 0.0066,0.03353 0.0053,0.03419 -0.07129,0.109063 -0.112774,0.109328 -0.333789,0.260426 -0.427904,0.292496 l -0.04135,0.01405 z"
         id="path60088" />
      <path
         style="fill:#3b77ab;fill-opacity:1;stroke:#3b77ab;stroke-width:0.0305215;stroke-miterlimit:4;stroke-dasharray:0.00305215, 0.00305215;stroke-dashoffset:0;stroke-opacity:1"
         d="m 32.645851,18.775171 c -0.251376,-0.02041 -0.5045,-0.07395 -0.676404,-0.143253 -0.266946,-0.107606 -0.508634,-0.273228 -0.749951,-0.513883 -0.219863,-0.219266 -0.306239,-0.341435 -0.468707,-0.662899 -0.106148,-0.20995 -0.1194,-0.243451 -0.1194,-0.30164 0,-0.0815 0.06719,-0.125893 0.229417,-0.151575 0.203112,-0.0322 0.270074,-0.03326 2.328585,-0.03684 1.94469,-0.004 2.021511,-0.0026 2.017006,0.01193 -0.0027,0.0093 -0.01829,0.07262 -0.03499,0.142166 -0.0167,0.06957 -0.04241,0.160627 -0.05725,0.202397 -0.223626,0.630658 -0.875023,1.228544 -1.513526,1.389197 -0.258902,0.0652 -0.632526,0.09024 -0.954879,0.06414 z"
         id="path60127" />
      <path
         style="fill:#3b77ab;fill-opacity:1;stroke:#3b77ab;stroke-width:0.0305215;stroke-miterlimit:4;stroke-dasharray:0.00305215, 0.00305215;stroke-dashoffset:0;stroke-opacity:1"
         d="m 32.842058,20.113573 c -0.10787,-0.02253 -0.12311,-0.03671 -0.139463,-0.130664 -0.0155,-0.08932 -0.03724,-0.35466 -0.05062,-0.618983 l -0.0106,-0.210254 0.209313,-0.0053 c 0.225813,-0.0053 0.302449,-0.01325 0.432953,-0.04201 0.04625,-0.0106 0.09369,-0.01617 0.105353,-0.01325 0.02664,0.0066 0.03896,0.0334 0.04665,0.100715 0.0066,0.06361 -0.022,0.882881 -0.0318,0.893894 -0.01445,0.01617 -0.500564,0.03856 -0.561748,0.02584 z"
         id="path60166" />
      <path
         style="fill:#3b77ab;fill-opacity:1;stroke:#3b77ab;stroke-width:0.0305215;stroke-miterlimit:4;stroke-dasharray:0.00305215, 0.00305215;stroke-dashoffset:0;stroke-opacity:1"
         d="m 31.259304,19.611565 c -0.141914,-0.04996 -0.333007,-0.203152 -0.377374,-0.302661 -0.03976,-0.08932 -0.0013,-0.200541 0.126953,-0.371994 0.0811,-0.10787 0.239515,-0.300155 0.247426,-0.300155 0.0027,0 0.159898,0.07885 0.348949,0.17515 0.309591,0.157751 0.343158,0.176913 0.338043,0.193014 -0.0093,0.03008 -0.06308,0.117809 -0.164019,0.268431 -0.113966,0.17022 -0.223506,0.287871 -0.304051,0.326685 -0.07037,0.03392 -0.141517,0.03764 -0.215874,0.01193 z"
         id="path60205" />
    </g>
    <path
       style="fill:#3b77ab;fill-opacity:1;stroke:#3b77ab;stroke-width:0.00647276;stroke-miterlimit:4;stroke-dasharray:0.000647276, 0.000647276;stroke-dashoffset:0;stroke-opacity:1"
       d="m 17.468152,25.873801 c -0.0545,-0.04293 -0.144551,-0.199332 -0.250062,-0.434102 -0.09712,-0.216361 -0.141978,-0.285387 -0.213851,-0.329204 -0.09776,-0.05965 -0.208321,-0.03215 -0.48832,0.12108 -0.285886,0.156449 -0.413088,0.181195 -0.497695,0.09663 -0.05339,-0.05339 -0.06914,-0.131205 -0.08522,-0.418489 -0.01623,-0.289616 -0.02894,-0.346633 -0.09261,-0.419229 -0.06978,-0.07943 -0.149534,-0.09631 -0.528968,-0.11255 -0.325472,-0.01448 -0.442624,-0.02782 -0.502631,-0.05998 -0.02637,-0.01447 -0.02942,-0.02541 -0.02091,-0.07895 0.01705,-0.107089 0.05339,-0.219768 0.138281,-0.429069 0.101945,-0.251107 0.153232,-0.399371 0.153232,-0.44219 0,-0.0455 -0.142299,-0.118021 -0.418987,-0.213787 -0.361569,-0.125094 -0.448444,-0.171789 -0.485989,-0.261091 -0.04341,-0.103389 0.03408,-0.223966 0.364432,-0.566385 l 0.225733,-0.234014 -0.287767,-0.254709 c -0.158218,-0.140048 -0.308974,-0.277219 -0.334893,-0.304697 -0.06592,-0.06995 -0.124935,-0.161305 -0.124935,-0.193672 0,-0.0537 0.08586,-0.126221 0.227116,-0.19192 0.368131,-0.171033 0.479815,-0.22657 0.542717,-0.269839 0.06463,-0.04437 0.06818,-0.05049 0.06802,-0.117221 0,-0.07541 -0.05547,-0.244353 -0.1701,-0.51982 -0.0849,-0.203769 -0.105317,-0.30005 -0.08007,-0.376989 0.0365,-0.111421 0.164393,-0.148731 0.658019,-0.192594 l 0.295533,-0.02621 v -0.352726 c 0,-0.326967 0.01608,-0.591098 0.03843,-0.649883 0.02219,-0.05772 0.214028,-0.0097 0.653629,0.163283 0.156609,0.06158 0.286159,0.110304 0.288008,0.108048 0.0016,-0.0016 0.0373,-0.05869 0.07878,-0.125257 0.09953,-0.159825 0.159987,-0.305003 0.214334,-0.514754 0.05274,-0.203609 0.09616,-0.298748 0.149857,-0.328125 0.03585,-0.01962 0.04614,-0.01801 0.120266,0.01816 0.04663,0.02284 0.147445,0.101302 0.237632,0.184893 0.245382,0.227567 0.40217,0.334541 0.490363,0.334541 0.07299,0 0.219592,-0.110305 0.434375,-0.326951 0.197596,-0.199332 0.302399,-0.285902 0.372729,-0.307914 0.02942,-0.0097 0.04261,0.0033 0.107405,0.104675 0.04051,0.06335 0.112549,0.200151 0.159826,0.30399 0.134904,0.296449 0.205973,0.393953 0.306499,0.421029 0.107562,0.02894 0.209815,-0.01128 0.448798,-0.173122 0.195505,-0.132974 0.270177,-0.170567 0.340329,-0.171034 0.146963,-9.64e-4 0.192724,0.123649 0.210685,0.573621 0.0097,0.257651 0.01608,0.296916 0.04614,0.360572 0.0484,0.100174 0.112064,0.127186 0.299617,0.127508 0.07814,1.28e-4 0.226312,-0.0097 0.329202,-0.02203 0.267041,-0.03168 0.366699,-0.02991 0.404019,0.008 0.05724,0.05725 0.03087,0.245704 -0.07525,0.53897 -0.03425,0.09454 -0.08168,0.225653 -0.105475,0.291497 -0.02379,0.06592 -0.04341,0.133295 -0.04357,0.149696 0,0.05226 0.07557,0.0894 0.568427,0.278923 0.110463,0.04244 0.253036,0.121397 0.303234,0.16793 0.05113,0.04743 0.0521,0.09326 0.0033,0.188767 -0.05129,0.101302 -0.145354,0.215669 -0.350524,0.42669 -0.09599,0.09873 -0.186517,0.19401 -0.201052,0.211665 -0.02621,0.03184 -0.02412,0.03408 0.20266,0.233531 0.257747,0.226619 0.39979,0.370092 0.436306,0.440712 0.07589,0.146801 -0.01608,0.245912 -0.356875,0.387022 -0.196743,0.08135 -0.385109,0.178542 -0.419502,0.216569 -0.02492,0.02749 -0.02444,0.03312 0.008,0.122522 0.01849,0.05162 0.08618,0.204879 0.150499,0.340666 0.06416,0.135869 0.12397,0.273844 0.132813,0.306757 0.0537,0.19885 -0.02171,0.285677 -0.286529,0.329926 -0.108047,0.01801 -0.578539,0.06656 -0.645412,0.06656 -0.02171,0 -0.02428,0.0357 -0.02428,0.335103 0,0.335264 -0.01833,0.604877 -0.04583,0.677491 -0.01447,0.03683 -0.01849,0.03811 -0.09294,0.02829 -0.0431,-0.0064 -0.179217,-0.04326 -0.302656,-0.08361 -0.27381,-0.08956 -0.395609,-0.118823 -0.494608,-0.11915 -0.06592,-1.62e-4 -0.08152,0.0064 -0.121878,0.0484 -0.06368,0.06689 -0.13008,0.205361 -0.209189,0.436513 -0.07091,0.207066 -0.160903,0.395385 -0.195263,0.408569 -0.04824,0.01849 -0.227504,-0.0939 -0.423025,-0.265255 -0.151303,-0.132653 -0.315953,-0.255963 -0.380719,-0.285291 -0.05386,-0.02444 -0.06287,-0.02477 -0.103389,-0.0032 -0.06512,0.03361 -0.178927,0.143907 -0.30637,0.296577 -0.305919,0.366587 -0.346326,0.395898 -0.44198,0.32065 z m 0.788966,-3.388033 c 0.165358,-0.03505 0.278248,-0.116577 0.37945,-0.274051 0.185198,-0.288184 0.162077,-0.537265 -0.07123,-0.768079 -0.143747,-0.142301 -0.291032,-0.213128 -0.457241,-0.220187 -0.160307,-0.0064 -0.256508,0.02171 -0.40249,0.119307 -0.120108,0.08024 -0.207532,0.177271 -0.27418,0.303974 -0.03457,0.06561 -0.03987,0.09359 -0.03987,0.210379 0,0.120108 0.0049,0.145354 0.04679,0.233774 0.101774,0.214655 0.301111,0.358852 0.555515,0.401686 0.107247,0.01801 0.151303,0.01688 0.263358,-0.0064 z"
       id="path60381" />
    <path
       style="fill:#3b77ab;fill-opacity:1;stroke:#3b77ab;stroke-width:0.0059366;stroke-miterlimit:4;stroke-dasharray:0.000593659, 0.000593659;stroke-dashoffset:0;stroke-opacity:1"
       d="M 8.6353249,33.602432 C 8.616449,33.596534 8.4867621,33.556272 8.3471214,33.513651 7.9394217,33.389185 7.8071102,33.311364 7.7696525,33.173847 7.7481214,33.094803 7.7608055,32.936639 7.811682,32.635 7.8835008,32.212067 7.8814365,32.038582 7.8028349,31.883117 7.7358825,31.750688 7.6304112,31.665789 7.2482536,31.437148 L 7.0621445,31.325808 6.781639,31.428445 c -0.3732061,0.136411 -0.691361,0.241572 -0.8463388,0.279576 l -0.1266781,0.03111 -0.06179,-0.03613 c -0.1561152,-0.09142 -0.481924,-0.572707 -0.5283037,-0.780288 -0.011797,-0.05309 -0.010327,-0.07329 0.0059,-0.105742 0.032444,-0.06267 0.2018737,-0.22193 0.3534449,-0.332224 0.3429449,-0.249536 0.406048,-0.299366 0.475802,-0.375757 C 6.191855,29.957645 6.2325719,29.805366 6.2065578,29.537264 6.149044,28.945092 6.0691144,28.853556 5.4410334,28.66084 5.0868363,28.552154 4.8903895,28.456459 4.8588602,28.377238 c -0.054269,-0.136559 0.033329,-0.797024 0.1283001,-0.967059 0.054859,-0.09822 0.087303,-0.112816 0.2622633,-0.118272 0.1278578,-0.0045 0.9692417,0.04999 1.1353683,0.07285 0.047929,0.0059 0.051026,0.0045 0.1936006,-0.168029 0.2985561,-0.359875 0.3741647,-0.484488 0.3908143,-0.644186 0.016074,-0.154682 -0.027577,-0.305766 -0.2114005,-0.731354 -0.1992782,-0.461292 -0.2098519,-0.540558 -0.08981,-0.673459 0.077718,-0.08598 0.347664,-0.258974 0.553313,-0.35452 0.096447,-0.04484 0.2308224,-0.08362 0.2892949,-0.08362 0.1001327,0 0.3183024,0.247827 0.6917297,0.785699 0.113553,0.163561 0.1571309,0.216165 0.1790894,0.216165 0.015927,0 0.1489905,-0.01549 0.2956362,-0.03451 0.5178609,-0.06695 0.6783688,-0.106921 0.7386551,-0.183868 0.1020501,-0.130217 0.1989395,-0.326561 0.4071394,-0.824705 l 0.1405407,-0.336234 0.1145853,-0.0045 c 0.34992,-0.01328 0.782882,0.09792 0.893766,0.229658 0.05899,0.07005 0.0671,0.148961 0.07845,0.762855 0.0118,0.644052 0.01652,0.677691 0.105886,0.776689 0.05987,0.06636 0.329644,0.24582 0.470685,0.313214 0.09792,0.04675 0.110015,0.04925 0.24703,0.04925 0.171112,0 0.205398,-0.01035 0.60919,-0.178587 0.152058,-0.06341 0.316503,-0.125794 0.365449,-0.138477 0.288926,-0.07506 0.415383,0.01637 0.623907,0.451352 0.08819,0.183823 0.1342,0.30444 0.151498,0.397214 0.0089,0.04881 0.0059,0.05515 -0.07772,0.14231 -0.111931,0.117093 -0.296197,0.276967 -0.622478,0.540174 -0.143489,0.115765 -0.263148,0.212373 -0.266097,0.214866 -0.01035,0.0089 0.05501,0.559477 0.08126,0.690801 0.03451,0.172732 0.08966,0.281405 0.189589,0.373973 0.104261,0.09645 0.224407,0.153444 0.555452,0.263266 0.308997,0.102492 0.411799,0.152043 0.488647,0.235423 0.109124,0.11842 0.109425,0.258827 7.81e-4,0.631547 -0.129627,0.444936 -0.255406,0.535763 -0.665406,0.480535 -0.09055,-0.0118 -0.220263,-0.03111 -0.288204,-0.04203 -0.06798,-0.01035 -0.210221,-0.02404 -0.316193,-0.02906 -0.168015,-0.0073 -0.199205,-0.0059 -0.243579,0.01489 -0.122254,0.0581 -0.407479,0.422182 -0.526989,0.672942 -0.09497,0.199161 -0.07624,0.292967 0.162071,0.812701 0.123581,0.269564 0.190459,0.457324 0.190459,0.534791 0,0.04572 -0.0089,0.06253 -0.06518,0.116502 -0.151114,0.146145 -0.534142,0.392289 -0.727433,0.467352 l -0.101613,0.03937 -0.0618,-0.03628 c -0.09011,-0.05279 -0.291964,-0.262028 -0.485048,-0.50273 -0.201181,-0.25079 -0.330116,-0.386966 -0.404824,-0.427565 -0.08435,-0.04586 -0.293705,-0.03982 -0.5706409,0.01622 -0.2742821,0.05545 -0.3448182,0.07698 -0.3965217,0.120485 -0.063707,0.05353 -0.099691,0.124908 -0.2183021,0.432225 -0.1591365,0.412373 -0.2583405,0.597774 -0.3980698,0.743904 -0.089663,0.09379 -0.1578092,0.126236 -0.2211777,0.105296 z m 1.1224795,-3.04766 c 0.2261031,-0.02493 0.3822906,-0.08966 0.6404976,-0.26533 0.339538,-0.231014 0.581584,-0.550128 0.687999,-0.907098 0.04925,-0.165168 0.06223,-0.496197 0.02699,-0.684473 -0.07226,-0.385048 -0.221738,-0.668223 -0.493616,-0.934956 -0.169976,-0.166745 -0.312271,-0.263663 -0.516328,-0.35163 -0.7083345,-0.305384 -1.5167881,-0.124466 -1.9620487,0.439052 -0.2619832,0.331574 -0.3224612,0.523096 -0.3387715,1.072781 -0.011798,0.396344 0.010327,0.482984 0.2077873,0.809191 0.3614821,0.597643 0.7626783,0.827301 1.4593336,0.835382 0.085238,9.73e-4 0.2149107,-0.0045 0.2882041,-0.01328 z"
       id="path60420" />
    <circle
       style="fill:none;fill-opacity:1;stroke:#3b77ab;stroke-width:1;stroke-miterlimit:4;stroke-dasharray:none;stroke-dashoffset:0;stroke-opacity:1"
       id="path60561"
       cx="19.855402"
       cy="19.550938"
       r="19.077732" />
    <text
       xml:space="preserve"
       style="font-weight:bold;font-size:24px;line-height:1.25;font-family:Roboto;-inkscape-font-specification:'Roboto Bold';word-spacing:0px"
       x="49.322411"
       y="28.082188"
       id="text85298"><tspan
         sodipodi:role="line"
         id="tspan85296"
         x="49.322411"
         y="28.082188"
         style="font-style:normal;font-variant:normal;font-weight:bold;font-stretch:normal;font-size:24px;font-family:'Roboto Slab';-inkscape-font-specification:'Roboto Slab Bold'">WPDB</tspan></text>
  </g>
</svg>
