<?xml version="1.0" encoding="UTF-8" standalone="no"?>
<!-- Created with Inkscape (http://www.inkscape.org/) -->

<svg
   version="1.1"
   id="svg63486"
   xml:space="preserve"
   width="4000"
   height="2666.6667"
   viewBox="0 0 4000 2666.6667"
   sodipodi:docname="motivacao.svg"
   inkscape:export-filename="/home/vinicius/Documents/RESEARCH/WorkshopPython/Bigspring/static/images/motivacao.png"
   inkscape:export-xdpi="100"
   inkscape:export-ydpi="100"
   inkscape:version="1.1.1 (eb90963e84, 2021-10-02)"
   xmlns:inkscape="http://www.inkscape.org/namespaces/inkscape"
   xmlns:sodipodi="http://sodipodi.sourceforge.net/DTD/sodipodi-0.dtd"
   xmlns="http://www.w3.org/2000/svg"
   xmlns:svg="http://www.w3.org/2000/svg"><defs
     id="defs63490" /><sodipodi:namedview
     id="namedview63488"
     pagecolor="#ffffff"
     bordercolor="#666666"
     borderopacity="1.0"
     inkscape:pageshadow="2"
     inkscape:pageopacity="0.0"
     inkscape:pagecheckerboard="0"
     showgrid="false"
     inkscape:zoom="0.1486875"
     inkscape:cx="1751.9967"
     inkscape:cy="1388.8189"
     inkscape:window-width="1920"
     inkscape:window-height="973"
     inkscape:window-x="0"
     inkscape:window-y="27"
     inkscape:window-maximized="1"
     inkscape:current-layer="g63492" /><g
     id="g63492"
     inkscape:groupmode="layer"
     inkscape:label="ink_ext_XXXXXX"
     transform="matrix(1.3333333,0,0,-1.3333333,0,2666.6667)"><g
       id="g63500"
       transform="matrix(0.13045358,0,0,0.13045358,369.14175,248.66281)"><path
         d="m 14754.1,911.947 c -914.9,0 -12455.01,-6.193 -12455.01,-4.732 -5.1,11.919 -2108.193,2367.665 394.54,4345.055 1211.9,957.54 -715.77,2422.49 816.65,3914.18 669.14,651.35 1352.73,516.16 2052.54,380.96 522.4,-100.93 1053.9,-201.86 1595.09,24.44 223.74,93.47 448.23,243.9 672.96,474.75 126.51,129.8 265.17,243.3 413.58,341.3 22.73,15.1 45.76,29.8 68.95,44.2 88.88,54.8 181.03,104.3 275.98,148.8 63.75,29.9 128.66,57.6 194.87,83 h 0.06 c 104.94,40.3 212.81,75.1 322.95,104.5 156.42,41.8 317.46,72.9 481.71,94 71.64,9.2 143.86,16.5 216.61,21.9 1414.82,105.8 3007.02,-489 3828.72,-1358.33 165.5,-175.06 917.6,-1080.83 324.7,-2325.82 -374.4,-786.04 1117.1,-1808.81 1465,-2817.64 876,-2539.45 -657,-3440.82 -669.9,-3470.563"
         style="fill:#ebf3fa;fill-opacity:1;fill-rule:nonzero;stroke:none"
         id="path63502" /></g><g
       id="g63504"
       transform="matrix(0.09969535,0,0,0.09969535,369.14175,248.66281)"><path
         d="m 14418,10157.1 c -48.4,76.7 -103.6,144.4 -160.8,203.8 130,328.1 318.8,680.1 589.1,959.8 498,515.3 989.6,756.1 1245.9,756.1 107.5,0 173.5,-42.3 181.3,-124.5 26.5,-278.1 -1107.7,-717.8 -1557.1,-1344.2 -110.4,-153.9 -210.4,-307.2 -298.4,-451"
         style="fill:#d9e8fa;fill-opacity:1;fill-rule:nonzero;stroke:none"
         id="path63506" /></g><g
       id="g63508"
       transform="matrix(0.09768678,0,0,0.09768678,369.14175,248.66281)"><path
         d="m 14897.1,9894.53 c -13.8,40.05 -25.6,80.87 -35.4,122.27 -11.1,47.4 -25,92.7 -41.2,136 101.6,164.5 226.5,325 378.5,457 382.3,332.5 744.5,481.6 942.8,481.6 98,0 156,-36.4 156.6,-105.3 1.6,-208 -868.1,-460.8 -1241.8,-896.4 -56.2,-65.4 -109.4,-131.01 -159.5,-195.17"
         style="fill:#d9e8fa;fill-opacity:1;fill-rule:nonzero;stroke:none"
         id="path63510" /></g><g
       id="g63512"
       transform="matrix(0.10911011,0,0,0.10911011,369.14175,248.66281)"><path
         d="m 14380.8,6670.85 c -83,0 -168,4.4 -251.1,13.69 -13.9,271.62 -89,475.77 -164.2,615.48 137.2,-71.97 593.5,-24.17 811.6,-209.78 218.8,-186.26 396,-301.05 -10.6,-384.18 -110.8,-22.64 -245.4,-35.21 -385.7,-35.21 m 793.7,419.14 c -10.8,0 -21.6,0.51 -32.5,1.55 -437.9,41.97 -573.2,313.1 -844.2,334.12 -32.3,2.51 -63.5,3.67 -93.2,3.67 -138.7,0 -245.5,-25.47 -275.6,-60.41 -69.5,140.26 -111.8,292.24 -124.7,448.15 -17.4,211.8 -82.4,387.75 -158.7,526.45 10.3,263.28 -3.6,542.02 -3.6,542.02 0,0 761.9,365.93 1107.7,365.93 13.7,0 26.8,-0.58 39.2,-1.78 0,0 -499.3,-844.57 -350.2,-844.56 1.8,0 3.7,0.12 5.6,0.36 166.9,20.75 740.8,896.08 740.8,896.08 0,0 124.3,22.95 285.3,22.95 258.4,0 611.1,-59.18 694.3,-367.58 135.3,-500.47 -83.8,-750.52 -208.9,-781.73 -125.1,-31.19 -927.8,-20.27 -907,-124.53 16.5,-82.8 361.7,-205.26 654.6,-205.26 75.8,0 148.3,8.23 210.5,27.5 0,0 -317.7,-782.93 -739.4,-782.93 m -1683.4,1479.33 c -39.1,51.75 -73,106.9 -101.6,164.62 44.9,23.91 91.1,43.88 137.7,57.84 0,0 -17.8,-94.49 -36.1,-222.46"
         style="fill:#d9e8fa;fill-opacity:1;fill-rule:nonzero;stroke:none"
         id="path63514" /></g><path
       d="m 1134.45,966.76385 c -20.3052,6.9748 -43.4774,14.1096 -68.0292,20.1849 -15.8399,3.918 -33.3606,5.3663 -51.405,5.3663 -25.71434,0 -52.48896,-2.9423 -76.96383,-5.8923 -24.47867,-2.9423 -46.65225,-5.8847 -63.17057,-5.8847 -13.68346,0 -23.48773,2.02 -27.49344,7.737 -14.87259,21.22905 35.24417,49.38725 119.69494,49.38725 12.47679,0 25.70669,-0.6175 39.583,-1.959 47.7095,-4.6194 93.2512,-24.6136 129.2019,-45.47685 -0.7317,-6.1286 -1.1738,-12.6155 -1.2653,-19.4683 -0.023,-1.3339 -0.069,-2.6679 -0.1525,-3.9943"
       style="fill:#d9e8fa;fill-opacity:1;fill-rule:nonzero;stroke:none;stroke-width:0.0762267"
       id="path63516" /><path
       d="m 968.04412,908.83925 c -6.62943,0 -11.49574,1.1967 -14.01046,4.1925 -13.76654,16.4116 32.51754,44.5621 109.68864,44.5621 1.0161,0 2.0406,0 3.0674,-0.015 22.0234,-0.2058 43.8067,-4.909 63.7751,-11.5788 -1.3782,-4.3297 -3.1002,-8.5526 -5.1514,-12.6384 -1.302,-2.5993 -2.6398,-5.5188 -3.9524,-8.7813 -2.6939,0.465 -5.4174,0.9147 -8.1578,1.3492 -6.4716,1.0138 -13.2649,1.4559 -20.2519,1.4559 -22.6858,0 -47.4092,-4.6345 -69.7245,-9.2768 -22.3177,-4.6345 -42.22505,-9.2691 -55.28268,-9.2691"
       style="fill:#d9e8fa;fill-opacity:1;fill-rule:nonzero;stroke:none;stroke-width:0.0762267"
       id="path63518" /><path
       d="m 1118.6147,736.7575 c -6.0966,0.22106 -5.3786,7.02048 -3.482,16.5793 0.7828,-5.33586 1.9117,-10.88517 3.482,-16.5793 m -41.7799,2.2868 c -23.1347,0 -51.3363,15.99998 -51.3363,15.99998 19.5559,7.56169 40.8445,38.51734 37.6399,44.78318 -0.2721,0.53358 -0.8209,0.77751 -1.6,0.77751 -8.3811,0 -43.5178,-28.35633 -50.6381,-31.57309 -1.4582,-0.66318 -3.4058,-1.05955 -5.6941,-1.05955 -9.92171,0 -26.28072,7.43972 -37.28404,33.08238 -13.54015,31.55784 36.73594,58.16094 36.73594,58.16094 0,0 51.3402,-17.09 69.8717,-17.09 2.4461,0 4.319,0.2973 5.4288,0.9757 9.5184,5.778 -52.588,29.6979 -52.588,29.6979 15.4946,14.9099 74.5482,28.2115 74.5482,28.2115 0,0 4.2366,-5.9533 10.206,-13.6674 -2.5712,-20.8633 -1.9659,-47.2606 5.5927,-79.5655 0,0 -4.7009,-15.46634 -4.0362,-37.86174 -3.0887,-7.52358 -7.4801,-15.59598 -15.9741,-23.74462 -5.4166,-5.19866 -12.8411,-7.12719 -20.8724,-7.12719 m 37.1209,159.83975 c -1.4018,1.2577 -2.2243,1.9666 -2.2243,1.9666 0.9247,0.3659 1.8729,0.7089 2.8364,1.0138 -0.2111,-0.9757 -0.4147,-1.9666 -0.6121,-2.9804"
       style="fill:#d9e8fa;fill-opacity:1;fill-rule:nonzero;stroke:none;stroke-width:0.0762267"
       id="path63520" /><g
       id="g63522"
       transform="matrix(0.09703276,0,0,0.09703276,369.14175,248.66281)"
       style="fill:#f39892;fill-opacity:1"><path
         d="m 12100.5,11193.2 c 0,0 723.5,533.7 2030.3,-193.6 0,0 676.1,-257.1 831,-915.3 41,-174.01 118.3,-337.62 231.2,-477.32 136.7,-169.2 298.7,-443.49 329.5,-816.93 16.3,-197.8 74.9,-389.95 171.7,-563.9 113.2,-203.26 230.8,-536.61 187.6,-1007.88 0,0 418.2,-451 182.9,-1456.15 0,0 191.5,-630.11 -240.5,-1198.32 0,0 107.6,-725.08 -517.3,-968.14 0,0 -329.9,-754.07 -1312,-799.87 -142.3,-6.68 -282,-38.97 -413.9,-91.92 -187,-75.1 -522.8,-148.31 -1005.3,-21.44 -784,206.21 -705.3,681.96 -705.3,681.96 v 7713.21 l 230.1,115.6"
         style="fill:#f39892;fill-opacity:1;fill-rule:nonzero;stroke:none"
         id="path63524" /></g><path
       d="m 1502.3733,1334.771 c 0,0 -70.1971,51.7884 -196.9926,-18.7899 0,0 -68.7336,-26.1305 -81.6235,-93.3853 -2.7137,-14.1858 -9.2463,-27.4187 -18.706,-38.4487 -14.5517,-16.9681 -33.6007,-47.0547 -35.1177,-89.4368 -0.5412,-15.0319 -5.1071,-29.6217 -13.0881,-42.4506 -10.0009,-16.0838 -21.7322,-43.0452 -22.2429,-81.50155 -0.1753,-12.989 -3.3464,-25.757 -9.1891,-37.3968 -10.264,-20.4516 -22.7247,-61.3625 -7.6959,-125.5835 0,0 -14.4297,-47.48917 10.8493,-96.51055 6.7522,-13.08812 10.9752,-27.31202 12.2634,-41.93992 1.677,-18.99569 8.7966,-45.91896 33.6998,-63.00898 10.8776,-7.46259 20.2992,-16.80036 28.1429,-27.33489 15.8856,-21.36634 49.8065,-54.11332 110.4601,-58.70979 16.6555,-1.25774 33.0442,-4.71843 48.7088,-10.44305 18.6374,-6.81467 50.18,-12.51643 94.4296,-0.88423 76.0743,20.0095 68.4363,66.17238 68.4363,66.17238 v 748.43168 l -22.3344,11.2205"
       style="fill:#f39892;fill-opacity:1;fill-rule:nonzero;stroke:none;stroke-width:0.0762267"
       id="path63526" /><path
       d="m 1459.2443,837.74265 c -33.8752,4.1238 -61.0728,23.4625 -80.8384,57.4825 -0.076,0.1372 -0.1601,0.2744 -0.2363,0.404 -9.3073,16.1372 -3.9867,36.5812 11.8227,46.666 3.1787,2.0276 5.9076,4.2763 7.7294,6.6622 0,0 -34.1648,-4.9395 -75.4415,12.0286 -24.2096,9.9475 -40.606,30.6812 -40.606,30.6812 0.4574,-0.6632 2.2335,-22.6622 22.4183,-41.0481 5.8694,-5.3435 19.575,-12.2039 29.4387,-14.3763 10.2068,-2.2411 14.5365,-12.364 18.3021,-21.9838 3.1557,-8.0572 7.2872,-17.1205 12.6155,-26.3592 8.8956,-15.3978 19.4149,-28.2725 31.3444,-38.4716 -22.8833,-10.2067 -35.7427,-26.039 -42.7022,-38.3344 -8.728,-15.42827 -10.2906,-28.72983 -10.3516,-29.28628 0,0 8.4917,16.4116 26.4659,32.40398 15.8857,14.1248 36.8556,21.2139 58.222,20.2915 14.9556,-0.6479 31.817,3.2397 31.817,3.2397"
       style="fill:#d14842;fill-opacity:1;fill-rule:nonzero;stroke:none;stroke-width:0.0762267"
       id="path63528" /><path
       d="m 1314.97,737.22248 c -1.7532,0 -3.514,0.0534 -5.2748,0.15246 -23.7599,1.38732 -44.0972,12.46306 -58.7937,32.0152 -22.8908,30.43732 -17.6769,58.13051 -9.2768,75.99801 0.099,0.2058 0.1982,0.4116 0.2973,0.6174 3.4836,7.2568 5.435,-6.3192 5.0157,-14.3306 -0.8994,-17.1815 12.646,-43.71599 29.4998,-58.09234 19.5064,-16.63266 51.1023,-16.25915 75.1899,-17.06715 9.0177,-0.29729 16.6251,-0.89948 8.5755,-6.28871 -11.5178,-7.71414 -29.21,-13.00427 -45.2329,-13.00427"
       style="fill:#d14842;fill-opacity:1;fill-rule:nonzero;stroke:none;stroke-width:0.0762267"
       id="path63530" /><path
       d="m 1266.1392,646.25356 c -8.2248,-4.34492 -18.4697,-1.63125 -23.3558,6.21247 -28.8061,46.23149 -67.4073,79.77123 -67.9027,79.99991 2.4163,-1.10529 59.4796,-27.70078 91.2585,-86.21238"
       style="fill:#d14842;fill-opacity:1;fill-rule:nonzero;stroke:none;stroke-width:0.0762267"
       id="path63532" /><path
       d="m 1187.5343,881.26805 c 6.8528,13.0348 24.8346,17.8904 38.7765,19.6589 16.5945,2.1038 39.8284,-0.8157 39.8284,-0.8157 -2.18,0.2592 -36.5278,31.9847 -75.472,7.2797 -2.4469,23.4244 -31.2606,33.6541 -31.2606,33.6541 0.046,-0.061 4.7642,-6.426 8.7737,-15.6494 3.6437,-8.3697 7.455,-20.8708 4.9014,-32.907 -2.3859,-11.274 -10.1381,-20.6727 -23.0281,-27.9371 0,0 27.3197,-5.3435 37.4807,16.7165"
       style="fill:#d14842;fill-opacity:1;fill-rule:nonzero;stroke:none;stroke-width:0.0762267"
       id="path63534" /><path
       d="m 1388.3916,1011.0287 c 14.1248,4.1772 30.14,-5.3283 41.1243,-14.09425 13.0805,-10.4278 27.19,-29.1186 27.19,-29.1186 -1.3416,1.7379 -2.5383,48.48005 -47.3977,59.18235 15.0852,18.0809 2.3249,45.8732 2.3249,45.8732 -0.01,-0.076 -1.2806,-7.8971 -5.092,-17.2044 -3.4606,-8.4459 -9.7722,-19.8875 -20.1772,-26.4506 -9.7494,-6.1515 -21.8846,-7.1501 -36.0857,-2.9729 0,0 15.2149,-23.3101 38.1134,-15.2148"
       style="fill:#d14842;fill-opacity:1;fill-rule:nonzero;stroke:none;stroke-width:0.0762267"
       id="path63536" /><g
       id="g63538"
       transform="matrix(0.08714463,0,0,0.08714463,369.14175,248.66281)"
       style="fill:#d14842;fill-opacity:1"><path
         d="m 14092.6,7121.94 c 421.1,51.26 759.2,291.64 1004.9,714.47 1,1.75 2,3.41 2.9,5.08 115.7,200.66 49.6,454.76 -146.9,580.11 -39.6,25.19 -73.4,53.09 -96.1,82.83 0,0 424.7,-61.4 937.8,149.5 301,123.68 504.8,381.39 504.8,381.39 -5.7,-8.23 -27.7,-281.67 -278.8,-510.24 -72.8,-66.39 -243.2,-151.76 -365.9,-178.71 -126.8,-27.9 -180.6,-153.68 -227.5,-273.35 -39.2,-100.15 -90.5,-212.73 -156.8,-327.67 -110.6,-191.38 -241.4,-351.45 -389.6,-478.2 284.4,-126.92 444.3,-323.65 530.8,-476.46 108.5,-191.83 127.8,-357.15 128.6,-364.15 0,0 -105.5,203.99 -328.9,402.81 -197.5,175.65 -458.1,263.73 -723.8,252.27 -185.9,-8.05 -395.5,40.32 -395.5,40.32"
         style="fill:#d14842;fill-opacity:1;fill-rule:nonzero;stroke:none"
         id="path63540" /></g><g
       id="g63542"
       transform="matrix(0.08882695,0,0,0.08882695,369.14175,248.66281)"
       style="fill:#d14842;fill-opacity:1"><path
         d="m 15321.1,5500.13 c 19.8,0 39.5,0.6 59.3,1.71 267.6,15.62 496.4,140.31 662,360.43 257.6,342.65 199,654.42 104.3,855.57 -1.1,2.32 -2.1,4.63 -3.2,6.95 -39.3,81.7 -61.2,-71.14 -56.5,-161.33 10.1,-193.43 -142.4,-492.15 -332.1,-654 -219.6,-187.24 -575.4,-183.04 -846.5,-192.13 -101.5,-3.35 -187.1,-10.13 -96.5,-70.8 129.6,-86.85 328.8,-146.4 509.2,-146.4"
         style="fill:#d14842;fill-opacity:1;fill-rule:nonzero;stroke:none"
         id="path63544" /></g><g
       id="g63546"
       transform="matrix(0.07979409,0,0,0.07979409,369.14175,248.66281)"
       style="fill:#d14842;fill-opacity:1"><path
         d="m 15710.6,9717.08 c 16,5.63 32,11.72 47.7,18.3 212.9,88.89 362.5,255.4 432.6,481.52 109.1,351.9 -29.9,588.6 -165.7,725.2 -1.7,1.6 -3.2,3.2 -4.8,4.7 -55.8,55.2 -28.9,-75.2 1.4,-147.2 64.9,-154.4 28.4,-440.7 -78.4,-626.2 -123.7,-214.82 -414.1,-312.7 -631.8,-397.28 -81.6,-31.67 -149.3,-61.52 -57.8,-85.05 130.7,-33.66 310.1,-25.35 456.8,26.01"
         style="fill:#d14842;fill-opacity:1;fill-rule:nonzero;stroke:none"
         id="path63548" /></g><g
       id="g63550"
       transform="matrix(0.09128298,0,0,0.09128298,369.14175,248.66281)"
       style="fill:#d14842;fill-opacity:1"><path
         d="m 15046.5,4397.86 c 70,-73.57 186,-80.75 264.5,-16.2 463.2,380.37 983.1,595.23 989,595.9 -29,-3.18 -715.8,-82.09 -1253.5,-579.7"
         style="fill:#d14842;fill-opacity:1;fill-rule:nonzero;stroke:none"
         id="path63552" /></g><g
       id="g63554"
       transform="matrix(0.08763096,0,0,0.08763096,369.14175,248.66281)"
       style="fill:#d54a41;fill-opacity:1"><path
         d="m 15872.3,9996.37 c -78.2,148.83 -283.4,204.23 -442.5,224.33 -189.4,24.1 -454.6,-9.2 -454.6,-9.2 25,2.9 416.9,364.9 861.3,83 28,267.3 356.8,384 356.8,384 -0.6,-0.7 -54.4,-73.3 -100.2,-178.5 -41.5,-95.5 -85,-238.2 -55.9,-375.5 27.2,-128.65 115.7,-235.92 262.8,-318.83 0,0 -311.8,-61.03 -427.7,190.7"
         style="fill:#d54a41;fill-opacity:1;fill-rule:nonzero;stroke:none"
         id="path63556" /></g><g
       id="g63558"
       transform="matrix(0.09360942,0,0,0.09360942,369.14175,248.66281)"><path
         d="m 15899.6,6757.91 c -73.1,139.24 -265.2,191.11 -414.1,210 -177.3,22.48 -425.6,-8.63 -425.6,-8.63 23.4,2.69 390.2,341.6 806.2,77.69 26.2,250.23 334.1,359.51 334.1,359.51 -0.5,-0.65 -50.9,-68.64 -93.8,-167.17 -39,-89.41 -79.6,-222.96 -52.3,-351.54 25.5,-120.43 108.2,-220.84 245.9,-298.44 0,0 -291.8,-57.08 -400.4,178.58"
         style="fill:#ea7147;fill-opacity:1;fill-rule:nonzero;stroke:none"
         id="path63560" /></g><path
       d="m 1531.3928,558.51665 -17.1205,0.0381 1.8828,765.01855 17.1129,-0.046 -1.8752,-765.01096"
       style="fill:#d14842;fill-opacity:1;fill-rule:nonzero;stroke:none;stroke-width:0.0762267"
       id="path63562" /><g
       id="g63564"
       transform="matrix(0.09891022,0,0,0.09891022,369.14175,248.66281)"
       style="fill:#f09959;fill-opacity:1"><path
         d="m 16300,6044.01 c 0,0 -21.7,49.01 -35.8,72.21 -14.1,23.2 -74.4,91.17 -84.7,75.76 -10.3,-15.42 -51.3,-118.92 -29.5,-147.97 21.8,-28.98 -1.4,-79.46 107,-109.97 l 43,109.97"
         style="fill:#f09959;fill-opacity:1;fill-rule:nonzero;stroke:none"
         id="path63566" /></g><g
       id="g63568"
       transform="matrix(0.10622188,0,0,0.10622188,369.14175,248.66281)"><path
         d="m 16300,5916.05 c 0,0 -516.8,-431.36 -718.3,-391.46 -157.6,31.22 -399.4,114.17 -399.4,114.17 l -48.4,-123.71 c 0,0 216.9,-294.16 443,-296.09 353.5,-3.02 614.5,152.99 614.5,152.99 l 108.6,544.1"
         style="fill:#6980e0;fill-opacity:1;fill-rule:nonzero;stroke:none"
         id="path63570" /></g><g
       id="g63572"
       transform="matrix(0.11212793,0,0,0.11212793,369.14175,248.66281)"><path
         d="m 16300,1293.97 c 0,0 -14.2,-229.23 -58.5,-232.56 -5.9,-0.41 -225,-0.41 -225,-0.41 l -279.7,1.63 c 0,0 1.9,67.37 83.7,81.58 81.7,14.27 218.5,71.72 268,179.74 52.1,113.67 211.5,-29.98 211.5,-29.98"
         style="fill:#20497a;fill-opacity:1;fill-rule:nonzero;stroke:none"
         id="path63574" /></g><g
       id="g63576"
       transform="matrix(0.11225141,0,0,0.11225141,369.14175,248.66281)"
       style="fill:#2b478b;fill-opacity:1"><path
         d="m 16298.2,1276.66 c 0,0 -84.9,-28.39 -151.2,-28.39 -73.9,0 -141.2,20.1 -141.2,20.1 0,0 -16,154.63 -103.9,495.25 -46.1,178.6 -112,408.13 -205.7,693.4 -259.2,788.41 -337.9,1249.63 -345.1,1293.3 -0.4,2.31 -0.6,3.46 -0.6,3.46 l 0.9,0.34 796.6,349.79 c 0,0 -98.5,-1086.58 27.1,-1503.67 17.6,-58.26 32.7,-126.24 45.6,-199.85 79.3,-453.01 77.5,-1123.73 77.5,-1123.73"
         style="fill:#2b478b;fill-opacity:1;fill-rule:nonzero;stroke:none"
         id="path63578" /></g><g
       id="g63580"
       transform="matrix(0.11151201,0,0,0.11151201,369.14175,248.66281)"
       style="fill:#233862;fill-opacity:1"><path
         d="m 16007.2,1775.31 c -46.4,179.78 -112.7,410.83 -207,697.99 -260.9,793.63 -340.2,1257.91 -347.4,1301.87 0,1.3 0.1,2.53 0.3,3.83 l 801.9,352.1 c 0,0 -99.2,-1093.78 27.3,-1513.63 17.7,-58.65 -275.1,-842.16 -275.1,-842.16"
         style="fill:#233862;fill-opacity:1;fill-rule:nonzero;stroke:none"
         id="path63582" /></g><g
       id="g63584"
       transform="matrix(0.10784322,0,0,0.10784322,369.14175,248.66281)"><path
         d="m 16300,1345.38 c 0,0 -14.8,-238.34 -60.9,-241.81 -6.1,-0.42 -233.8,-0.42 -233.8,-0.42 l -290.8,1.7 c 0,0 1.9,70.04 86.9,84.82 85,14.84 227.2,74.57 278.7,186.88 54.1,118.18 219.9,-31.17 219.9,-31.17"
         style="fill:#20497a;fill-opacity:1;fill-rule:nonzero;stroke:none"
         id="path63586" /></g><g
       id="g63588"
       transform="matrix(0.11056528,0,0,0.11056528,369.14175,248.66281)"
       style="fill:#2b478b;fill-opacity:1"><path
         d="m 15440.2,4140.48 c 0,0 -10.6,-714.87 113.1,-1592.57 123.7,-877.71 81.8,-1250.34 81.8,-1250.34 0,0 85,-27.51 119.2,-30.27 87.4,-7.17 177,20.48 177,20.48 0,0 177,877.98 126.2,1317.35 -50.7,439.3 242.5,1507.5 242.5,1507.5 l -859.8,27.85"
         style="fill:#2b478b;fill-opacity:1;fill-rule:nonzero;stroke:none"
         id="path63590" /></g><g
       id="g63592"
       transform="matrix(0.10866037,0,0,0.10866037,369.14175,248.66281)"
       style="fill:#f09959;fill-opacity:1"><path
         d="m 16300,5969.8 -112.3,-144.86 -235.8,-12.77 c -1.3,18.94 -4.8,98.01 -7.8,169.7 -0.2,4.21 -0.3,8.42 -0.5,12.56 -2.6,60.96 -3.5,127.81 -3.5,127.81 l 186.8,129.71 70.2,53.74 c 0.1,-1.27 11,-65.87 11,-75.42 0.8,-186.11 91.9,-260.47 91.9,-260.47"
         style="fill:#f09959;fill-opacity:1;fill-rule:nonzero;stroke:none"
         id="path63594" /></g><g
       id="g63596"
       transform="matrix(0.11254946,0,0,0.11254946,369.14175,248.66281)"><path
         d="m 15121.7,4037.09 c 3.2,-370.67 27.9,-1237.79 46,-1255.46 193.1,-186.32 1042.3,51.13 1087.3,256.41 45,205.35 -171.1,2632.5 -500.8,2729.41 -68.4,20.12 -434.3,-98.13 -434.3,-98.13 0,0 -57.3,-150.09 -95,-341.35 -14,-70.84 -59.5,-576.43 -86,-914.25 -7.1,-90.01 -12.8,-168.17 -16.2,-222.89 -1.4,-22.69 -1.6,-77.82 -1,-153.74"
         style="fill:#8c9df4;fill-opacity:1;fill-rule:nonzero;stroke:none"
         id="path63598" /></g><g
       id="g63600"
       transform="matrix(0.10802236,0,0,0.10802236,369.14175,248.66281)"
       style="fill:#e38540;fill-opacity:1"><path
         d="m 16288.7,6260.25 c -27.4,-90.11 -184.2,-200.41 -250.4,-243.03 -0.2,4.23 -0.3,8.47 -0.5,12.63 -2.6,61.32 -4.7,185.24 -4.7,185.24 l 189.1,73.81 c 46.8,12.06 77.8,8.47 66.5,-28.65"
         style="fill:#e38540;fill-opacity:1;fill-rule:nonzero;stroke:none"
         id="path63602" /></g><g
       id="g63604"
       transform="matrix(0.10961931,0,0,0.10961931,369.14175,248.66281)"
       style="fill:#f09959;fill-opacity:1"><path
         d="m 15738.3,6102.84 c 0,0 346.1,-107.92 410.1,108.62 63.9,216.61 151.6,348.52 -66.7,426.62 -218.3,78.09 -285.8,8.2 -324.7,-58.9 -38.9,-67.11 -107,-442.61 -18.7,-476.34"
         style="fill:#f09959;fill-opacity:1;fill-rule:nonzero;stroke:none"
         id="path63606" /></g><g
       id="g63608"
       transform="matrix(0.11035108,0,0,0.11035108,369.14175,248.66281)"><path
         d="m 15666,6556.27 c 0,0 21.9,-250.34 73.7,-239.49 51.8,10.84 120.1,12.64 112.5,-62.79 -7.6,-75.51 63.8,-203.57 111.3,-203.3 160.1,1.04 336.5,431.73 292.7,509.65 -126.5,224.84 -773,270.16 -590.2,-4.07"
         style="fill:#163560;fill-opacity:1;fill-rule:nonzero;stroke:none"
         id="path63610" /></g><g
       id="g63612"
       transform="matrix(0.10878081,0,0,0.10878081,369.14175,248.66281)"><path
         d="m 15943.5,5961.74 c 4.4,1.89 259.6,116.39 289.4,106.51 29.9,-9.81 67.1,-100.98 67.1,-100.98 l -449.3,-101.61 c 0,0 35.4,71.9 92.8,96.08"
         style="fill:#6980e0;fill-opacity:1;fill-rule:nonzero;stroke:none"
         id="path63614" /></g><g
       id="g63616"
       transform="matrix(0.10556938,0,0,0.10556938,369.14175,248.66281)"><path
         d="m 14725.1,4819.25 1351.8,-1435.58 c 26.1,-27.72 71.1,-28.16 100,-1.01 l 91.9,86.5 c 28.9,27.23 31.2,72.21 5.1,99.94 l -1354.4,1438.18 c -26.1,27.72 -48.8,5.92 -77.8,-21.23 l -91.9,-86.58 c -28.9,-27.14 -50.8,-52.49 -24.7,-80.22"
         style="fill:#1f4d84;fill-opacity:1;fill-rule:nonzero;stroke:none"
         id="path63618" /></g><g
       id="g63620"
       transform="matrix(0.10556405,0,0,0.10556405,369.14175,248.66281)"><path
         d="m 15467,4033.01 608.7,-647.06 c 27.2,-28.89 73.2,-30.26 102,-3.11 l 92,86.51 c 28.9,27.22 30.3,73.07 3.1,102.03 l -608.7,646.99 -197.1,-185.36"
         style="fill:#ed7d2b;fill-opacity:1;fill-rule:nonzero;stroke:none"
         id="path63622" /></g><g
       id="g63624"
       transform="matrix(0.09874786,0,0,0.09874786,369.14175,248.66281)"><path
         d="m 14200.5,6969.76 c 171.5,161.25 379.2,260.14 595.1,297.5 370.4,64.15 765,-53.19 1041.9,-347.45 438.3,-465.86 416,-1198.8 -49.9,-1637.03 -294.3,-276.89 -695.4,-369.91 -1061.3,-283.37 -213.1,50.56 -414.3,161.87 -575.7,333.32 -438.2,465.85 -415.8,1198.72 49.9,1637.03 m -105.9,-1689.68 c 467.3,-496.82 1249,-520.59 1745.7,-53.26 162.7,153.07 274.7,339.65 335.2,539.11 124.5,409.51 32.3,872.51 -282,1206.61 -467.3,496.73 -1248.9,520.43 -1745.6,53.18 -6.5,-6.25 -13.1,-12.42 -19.3,-18.76 -478,-469.18 -495.2,-1236.7 -34,-1726.88"
         style="fill:#163560;fill-opacity:1;fill-rule:nonzero;stroke:none"
         id="path63626" /></g><g
       id="g63628"
       transform="matrix(0.09799931,0,0,0.09799931,369.14175,248.66281)"><path
         d="m 15948.2,5362.6 c 0.1,204.73 -41.9,342.72 -41.9,342.72 233,995.23 -181,1441.78 -181,1441.78 0.4,5.45 0.9,10.82 1.4,16.18 23,-14.39 45.5,-29.63 67.7,-45.74 58.1,-42.31 113.1,-90.61 164.1,-144.83 238.4,-253.34 341.5,-584.77 312.3,-905.78 -23.3,-256.69 -131.3,-506.6 -322.6,-704.33"
         style="fill:#dae8fa;fill-opacity:1;fill-rule:nonzero;stroke:none"
         id="path63630" /></g><path
       d="m 1849.8033,739.26527 c -8.8978,0 -17.7861,1.02855 -26.4608,3.08661 -5.1718,1.21971 -10.266,2.80522 -15.2535,4.75655 -7.9664,3.10989 -15.6514,7.15034 -22.8901,12.10483 3.1731,3.07982 6.1519,6.47985 8.9368,10.1768 22.8803,30.43724 17.6793,58.13039 9.2666,75.99799 -0.097,0.2057 -0.1844,0.4114 -0.2814,0.6171 -0.7084,1.4487 -1.3391,2.0659 -1.9019,2.0659 -2.2705,0 -3.4543,-9.9779 -3.1147,-16.3966 0.8927,-17.1816 -12.653,-43.7162 -29.4979,-58.09258 -0.097,-0.0757 -0.1844,-0.15234 -0.2815,-0.22802 -0.6112,0.63265 -1.2226,1.26531 -1.8339,1.91252 -42.9758,45.68298 -41.0933,117.37368 3.9978,160.75518 0.3008,0.2969 0.6113,0.5938 0.9218,0.8917 14.2929,13.4313 31.1184,22.4796 48.8366,27.1973 0.01,0.01 0.029,0.01 0.049,0.015 0.029,0.01 0.049,0.015 0.068,0.022 3.2506,0.8539 6.5206,1.5709 9.81,2.1425 6.4916,1.1207 13.0509,1.6844 19.6007,1.6844 1.8436,0 3.6872,-0.046 5.5211,-0.1368 19.2223,-0.9228 38.2309,-6.67 55.0467,-17.1816 -0.049,-0.5259 -0.097,-1.0518 -0.1455,-1.5855 0,0 40.5791,-43.7618 17.7473,-141.2942 0,0 4.1142,-13.52251 4.1045,-33.585 -1.2712,-1.31092 -2.5715,-2.59951 -3.9105,-3.85706 -22.0749,-20.77956 -50.2338,-31.06989 -78.3345,-31.06989 m -45.1203,162.42315 c 4.7741,0 9.6451,-0.2057 14.0407,-0.7617 13.9436,-1.7689 31.9238,-6.6244 38.7743,-19.6589 6.8408,-14.8566 21.4733,-17.2883 30.2936,-17.2883 4.2695,0 7.1902,0.5715 7.1902,0.5715 -12.8957,7.2649 -20.639,16.6635 -23.0259,27.9367 -2.552,12.037 1.2517,24.5377 4.8904,32.9077 4.0172,9.223 8.7427,15.5883 8.7815,15.6495 0,0 -28.8188,-10.2302 -31.264,-33.6549 -10.8967,6.9146 -21.4345,9.4074 -31.0116,9.4074 -24.6367,0 -42.8789,-16.4966 -44.4605,-16.679 v 0 0 c 0.068,0.01 12.5852,1.57 25.7913,1.57"
       style="fill:#e57f7b;fill-opacity:1;fill-rule:nonzero;stroke:none;stroke-width:0.0970328"
       id="path63634" /><g
       id="g63636"
       transform="matrix(0.08882695,0,0,0.08882695,369.14175,248.66281)"
       style="fill:#bf4742;fill-opacity:1"><path
         d="m 15941.8,5747.7 c -55.2,37.85 -108,80.41 -157.9,127.78 -10.8,10.21 -21.5,20.68 -32.1,31.41 1,0.86 2.1,1.72 3.1,2.57 189.7,161.85 342.2,460.57 332.1,654 -3.8,72.25 9.5,184.58 35.1,184.58 6.4,0 13.5,-6.94 21.4,-23.25 1.1,-2.32 2.1,-4.63 3.2,-6.95 94.7,-201.15 153.3,-512.92 -104.3,-855.57 -31.3,-41.62 -64.9,-79.9 -100.6,-114.57"
         style="fill:#bf4742;fill-opacity:1;fill-rule:nonzero;stroke:none"
         id="path63638" /></g><g
       id="g63640"
       transform="matrix(0.09360942,0,0,0.09360942,369.14175,248.66281)"
       style="fill:#bf4742;fill-opacity:1"><path
         d="m 16223.2,6573.22 c -94.2,0 -250.5,25.98 -323.6,184.69 -73.1,139.24 -265.2,191.11 -414.1,210 -47,5.95 -99.1,8.15 -150.1,8.15 -141.1,0 -274.8,-16.69 -275.5,-16.78 16.9,1.96 211.8,178.17 474.9,178.17 102.4,0 214.9,-26.62 331.3,-100.48 26.2,250.23 334.1,359.51 334.1,359.51 -0.5,-0.65 -50.9,-68.64 -93.8,-167.17 -39,-89.41 -79.6,-222.96 -52.3,-351.54 25.5,-120.43 108.2,-220.84 245.9,-298.44 0,0 -31.1,-6.11 -76.8,-6.11 m -1163.3,386.06 v 0 0"
         style="fill:#bf4742;fill-opacity:1;fill-rule:nonzero;stroke:none"
         id="path63642" /></g><g
       id="g63644"
       transform="matrix(0.09495939,0,0,0.09495939,369.14175,248.66281)"><path
         d="m 15153.3,5249.05 c -140.8,54.99 -273.2,137.43 -388.7,247 46.7,-44.31 96.1,-84.12 147.7,-119.52 76.2,-52.18 157.1,-94.72 241,-127.48 m -396,1989.41 c 3.2,3.13 6.5,6.26 9.8,9.39 125.6,118.08 269.8,203.98 422.5,258.08 30.2,10.76 60.8,20.15 91.7,28.34 -186.5,-49.69 -363.8,-144.98 -514.2,-286.42 -3.3,-3.13 -6.6,-6.26 -9.8,-9.39 m 1542.7,106.92 c -22.9,16.62 -46.2,32.35 -69.9,47.2 -177.1,110.7 -377.2,171.23 -579.7,180.94 229.6,-11 456.2,-87.42 649.6,-228.14 m -1018.2,189.05 c 0.3,0.08 0.6,0.16 0.8,0.24 -0.2,-0.08 -0.5,-0.16 -0.8,-0.24"
         style="fill:#45648e;fill-opacity:1;fill-rule:nonzero;stroke:none"
         id="path63646" /></g><g
       id="g63648"
       transform="matrix(0.10997605,0,0,0.10997605,369.14175,248.66281)"><path
         d="m 15475.5,4131.54 c 824.5,558.38 757.3,1326.42 757.3,1326.42 -321.7,-181.52 -640.6,-611.19 -739.7,-940.98 -7.2,-92.11 -13.1,-172.1 -16.6,-228.1 -1.4,-23.22 -1.7,-79.64 -1,-157.34"
         style="fill:#6980e0;fill-opacity:1;fill-rule:nonzero;stroke:none"
         id="path63650" /></g><g
       id="g63652"
       transform="matrix(0.10013975,0,0,0.10013975,369.14175,248.66281)"
       style="fill:#f09959;fill-opacity:1"><path
         d="m 16197.5,4847.74 c -60.3,13.93 -100.9,59.6 -109.3,67.59 0,0 -25.8,-1.75 4.2,-56.71 2.5,-4.56 8.1,-16.36 12.3,-24.74 1.6,-3.42 -0.7,-7.38 -4.5,-7.61 -34.9,-2.66 -69.9,11.12 -137,-2.89 -9.2,-1.9 -11.9,-24.13 -11.6,-33.57 0.6,-15.98 -0.5,-33.95 18,-58.46 10.8,-14.31 41.1,-29.61 108.2,-56.64 25.7,-10.35 98.8,-2.58 167.4,21.02 l 54.8,25.34 -17,101.85 -13.8,-2.89 c -21.8,-4.57 -48.9,22.15 -71.7,27.71"
         style="fill:#f09959;fill-opacity:1;fill-rule:nonzero;stroke:none"
         id="path63654" /></g><g
       id="g63656"
       transform="matrix(0.11261654,0,0,0.11261654,369.14175,248.66281)"><path
         d="m 15616,5665.86 c 0,0 684,-130.23 -201.3,-1120.76 -141.5,-158.45 -906.5,-364.69 -906.5,-364.69 0,0 -77.6,65.99 -38.5,119.46 0,0 526.7,382.43 642.6,443.28 52.1,27.35 202.3,610.4 287.3,750.85 85,140.45 216.4,171.86 216.4,171.86"
         style="fill:#8c9df4;fill-opacity:1;fill-rule:nonzero;stroke:none"
         id="path63658" /></g><g
       id="g63660"
       transform="matrix(0.09878216,0,0,0.09878216,369.14175,248.66281)"
       style="fill:#f09959;fill-opacity:1"><path
         d="m 16300,6038.19 c 0,0 -25.5,48.77 -30.5,74.47 -4.9,25.69 -37,100.69 -50.3,113.89 -5.3,5.25 -22.8,-1.54 -24.8,-24.31 -0.9,-9.87 4,-27.85 12.5,-49.3 13.9,-34.89 11.7,-82.19 16.5,-98.01 12.1,-39.28 76.6,-16.74 76.6,-16.74"
         style="fill:#f09959;fill-opacity:1;fill-rule:nonzero;stroke:none"
         id="path63662" /></g><path
       d="m 1520.4238,734.69938 c -5.1834,16.65553 -27.7389,19.78082 -36.8175,4.88613 -1.6312,-2.68318 -2.6679,-5.76274 -2.7594,-9.29203 -0.4955,-19.52928 38.0219,-95.12328 43.1291,-101.80836 9.3072,-12.1734 65.4939,-41.44445 65.4939,-41.44445 l 11.9371,1.73797 c 0,0 -6.7537,4.2382 -13.7436,11.22057 -14.4297,14.40684 -35.4759,37.83892 -39.3254,41.07856 -6.6165,5.57217 -18.0657,61.99516 -27.9142,93.62161"
       style="fill:#e38540;fill-opacity:1;fill-rule:nonzero;stroke:none;stroke-width:0.0762267"
       id="path63664" /><path
       d="m 1536.7363,830.24955 c 0.3049,1.2577 -27.2586,-12.4555 -28.6536,-14.0105 -12.928,-14.33823 -9.2387,-33.05188 -1.8447,-33.2272 4.7413,-0.11434 3.8266,-8.0038 3.8266,-8.0038 l 52.848,22.35728 c 0,0 -6.365,37.10712 -26.1763,32.88422"
       style="fill:#233862;fill-opacity:1;fill-rule:nonzero;stroke:none;stroke-width:0.0762267"
       id="path63666" /><path
       d="m 1543.2385,827.35295 c 0,0 -17.6618,18.2105 -36.8633,3.9561 -16.6479,-12.3716 -2.1953,-31.86273 -23.0662,-38.66215 -10.3973,-3.39208 -27.373,-10.83943 -21.0233,-40.63644 4.2763,-20.06286 67.4301,-40.93373 63.7255,-57.79507 0,0 21.4959,33.62359 5.6789,50.08093 -7.5236,7.82848 -17.0214,27.52545 -16.1829,30.71173 0.8461,3.18627 27.7313,52.3449 27.7313,52.3449"
       style="fill:#233862;fill-opacity:1;fill-rule:nonzero;stroke:none;stroke-width:0.0762267"
       id="path63668" /><path
       d="m 1478.6287,382.18909 -11.4416,1.67698 c 0,0 -38.4487,30.55928 -44.181,87.58446 -0.5793,5.80085 -0.7013,11.69317 -0.2668,17.62361 0.046,0.68604 -0.031,1.37208 -0.404,1.9514 l -0.01,0.0153 c -1.2349,1.8828 -4.2992,6.60885 -8.4459,13.33205 -4.0858,6.62409 -11.0834,19.14814 -18.7823,33.19672 -13.8656,25.29963 -30.0104,55.56162 -35.5445,65.2043 -17.6465,30.71173 -9.1396,51.36916 -9.1396,51.36916 0,0 49.2196,4.87089 62.7041,16.66315 l 4.8633,-7.48546 c 0,0 10.6641,-47.20718 10.1534,-47.42824 0.5259,-1.60838 1.0595,-3.23963 1.6007,-4.90137 8.4231,-25.97806 18.0962,-58.443 23.3787,-84.88604 2.9653,-14.87945 4.5355,-27.83798 3.6894,-36.67265 -0.2896,-3.0262 0.069,-7.68365 0.869,-13.43115 4.7642,-33.88276 20.9547,-93.81217 20.9547,-93.81217"
       style="fill:#2b478b;fill-opacity:1;fill-rule:nonzero;stroke:none;stroke-width:0.0762267"
       id="path63670" /><path
       d="m 1502.6173,367.71364 h -47.718 c 0,0 -1.1434,7.27202 1.3493,12.79084 2.3935,5.29775 5.7932,5.46545 0.4345,13.75891 3.0338,-3.11767 12.7832,-4.41352 19.6817,-3.48356 0.8461,-1.37208 5.4426,-10.56501 8.2706,-12.59264 3.1177,-2.24107 17.0214,-1.44069 17.9819,-10.47355"
       style="fill:#2b4570;fill-opacity:1;fill-rule:nonzero;stroke:none;stroke-width:0.0762267"
       id="path63672" /><path
       d="m 1429.7369,610.9911 c -4.162,-22.98997 -14.0104,-61.24814 -34.6374,-73.42154 -13.8656,25.29963 -30.0104,55.56162 -35.5445,65.2043 -17.6465,30.71173 -9.1396,51.36916 -9.1396,51.36916 0,0 49.2196,4.87089 62.7041,16.66315 l 4.8633,-7.48546 c 0,0 10.6641,-47.20718 10.1534,-47.42824 0.5259,-1.60838 1.0595,-3.23963 1.6007,-4.90137"
       style="fill:#233862;fill-opacity:1;fill-rule:nonzero;stroke:none;stroke-width:0.0762267"
       id="path63674" /><path
       d="m 1396.2734,650.59848 0.1677,8.91852 c -17.7837,-2.24106 -61.3091,21.252 -61.3091,21.252 0,0 -18.5993,-12.37159 -21.1453,-47.70266 -1.2425,-17.25009 -9.1091,-90.18378 -9.978,-111.96175 -0.3202,-7.88946 -0.4193,-13.52261 -0.4574,-15.7713 v -0.0229 c -0.01,-0.68604 -0.3354,-1.29585 -0.7546,-1.83706 -3.6818,-4.68032 -6.8681,-9.63505 -9.6351,-14.77273 -27.1291,-50.47728 -12.9433,-119.06605 -12.9433,-119.06605 l 6.304,1.60076 c 0,0 22.9366,71.10425 37.9303,101.86172 2.546,5.2139 4.8557,9.27678 6.7918,11.62457 5.6408,6.84515 11.5789,18.47734 17.4407,32.46494 11.0757,26.45828 21.8313,61.3701 29.4997,88.40771 0.5412,-0.0991 18.0886,45.00423 18.0886,45.00423"
       style="fill:#2b478b;fill-opacity:1;fill-rule:nonzero;stroke:none;stroke-width:0.0762267"
       id="path63676" /><path
       d="m 1531.2175,762.08 v -0.008 h -0.01 l -0.023,-0.0457 -0.015,-0.0229 -0.061,-0.0915 -0.015,-0.0229 c -0.2439,-0.404 -0.8918,-1.4102 -1.8446,-2.79752 -0.084,-0.12197 -0.1754,-0.25155 -0.2592,-0.38876 -1.5093,-2.18008 -3.6818,-5.16055 -6.2049,-8.13339 -3.4225,-4.03239 -7.5007,-8.06478 -11.4568,-10.06954 v -0.008 c -1.1968,0.9757 -22.99,19.39206 -21.3969,18.72127 4.0248,0.81563 16.404,6.94425 24.3392,16.94519 3.6894,4.64983 16.9452,-14.07907 16.9452,-14.07907"
       style="fill:#f09959;fill-opacity:1;fill-rule:nonzero;stroke:none;stroke-width:0.0762267"
       id="path63678" /><path
       d="m 1518.6782,740.49261 c 0,0 5.1072,-10.08479 7.8361,-18.82037 2.7289,-8.73558 9.5512,-36.5202 9.5512,-36.5202 0,0 -14.0714,-16.05334 -33.6464,-15.11576 0,0 -10.5193,16.47259 -6.8147,31.35204 3.7122,14.87182 23.0738,39.10429 23.0738,39.10429"
       style="fill:#6980e0;fill-opacity:1;fill-rule:nonzero;stroke:none;stroke-width:0.0762267"
       id="path63680" /><path
       d="m 1531.2175,762.07238 -0.031,-0.0457 -0.015,-0.0229 -0.061,-0.0915 -0.015,-0.0229 c -0.2668,-0.38876 -0.9452,-1.39495 -1.8446,-2.79752 -0.084,-0.12197 -0.1754,-0.25155 -0.2592,-0.38876 -1.5093,-2.18008 -3.6818,-5.16055 -6.2049,-8.13339 -10.2677,7.00524 -10.2525,20.22294 -9.4216,27.15195 l 17.8447,-15.64934 h 0.01"
       style="fill:#e38540;fill-opacity:1;fill-rule:nonzero;stroke:none;stroke-width:0.0762267"
       id="path63682" /><path
       d="m 1531.713,754.22866 c 0,0 -26.9538,15.00141 -17.3568,31.64169 9.6045,16.64029 12.585,29.7818 30.201,20.909 17.6083,-8.87281 17.2653,-17.13578 15.4054,-23.47022 -1.8447,-6.32681 -20.9928,-32.54879 -28.2496,-29.08047"
       style="fill:#f09959;fill-opacity:1;fill-rule:nonzero;stroke:none;stroke-width:0.0762267"
       id="path63684" /><path
       d="m 1564.5209,793.02041 c -1.2348,7.38637 -4.9928,8.08765 -7.6074,7.5998 -9.9476,16.45734 -26.2143,10.03144 -26.2143,10.03144 -8.6823,-10.90042 -21.2368,-12.76035 -21.2368,-12.76035 0,0 3.1253,-5.8161 16.0076,-9.414 3.9409,-1.10528 8.4078,-0.43449 12.7146,1.01382 -8.9414,-4.98523 -18.2868,-6.89852 -18.2868,-6.89852 16.9757,-1.5474 33.1358,13.97235 34.8128,15.6341 0.7851,-2.40877 2.1572,-7.43973 1.3339,-11.12148 -1.1205,-5.00809 -5.5569,-14.07144 -2.8508,-15.24533 0,0 13.1796,10.07716 11.3272,21.16052"
       style="fill:#233862;fill-opacity:1;fill-rule:nonzero;stroke:none;stroke-width:0.0762267"
       id="path63686" /><path
       d="m 1318.1639,367.71364 h -47.7179 c 0,0 -1.1434,7.27202 1.3493,12.79084 2.3859,5.29775 6.1286,7.69889 5.2367,14.10956 3.0262,-3.1253 7.9733,-6.6241 14.8719,-5.69414 0.8461,-1.37208 5.4502,-8.70508 8.2782,-10.73271 3.1176,-2.24107 17.0214,-1.44069 17.9818,-10.47355"
       style="fill:#2b4570;fill-opacity:1;fill-rule:nonzero;stroke:none;stroke-width:0.0762267"
       id="path63688" /><path
       d="m 1503.7454,677.77329 c -6.1362,-2.14197 -14.7575,-3.31586 -23.5693,-4.27631 -12.5469,-1.36446 -25.4978,-2.30205 -32.282,-5.0081 -1.3263,-0.52596 -5.191,-2.14197 -9.0557,-4.93949 v -0.008 c 0,0 -0.091,-0.061 -0.2668,-0.20581 -1.2806,-0.92997 -2.5612,-2.01239 -3.7427,-3.22439 -1.799,-1.85231 -3.3693,-4.01715 -4.3754,-6.49451 -2.485,-6.1515 0.808,-23.19578 2.9194,-32.51068 0.8538,-3.75036 -0.9147,-7.62267 -4.3296,-9.39113 -4.7718,-2.46974 -9.4598,-4.74892 -14.0715,-6.82991 -0.2439,-0.11434 -0.4802,-0.21344 -0.7241,-0.32778 0.046,0.94521 0.061,1.89043 0.061,2.80515 0.01,6.43353 -0.808,11.77702 -0.808,11.77702 -1.1357,-6.48689 -5.4044,-13.49212 -9.3911,-18.88897 -64.0304,-25.6884 -108.7678,-14.52119 -108.036,-1.72273 2.5231,44.44016 32.4954,82.24097 32.4954,82.24097 55.8894,64.99087 168.9488,82.10376 168.9488,82.10376 0,0 5.4121,0.64793 11.9447,-7.20342 9.3988,-11.30442 9.8714,-14.25439 9.8714,-14.25439 0,0 2.4773,-57.33771 -15.5884,-63.64166"
       style="fill:#8c9df4;fill-opacity:1;fill-rule:nonzero;stroke:none;stroke-width:0.0762267"
       id="path63690" /><path
       d="m 1480.1761,673.5046 c -12.5469,-1.37208 -25.5054,-2.30967 -32.2896,-5.01572 -2.7747,41.43683 16.7851,72.60592 16.7851,72.60592 0,0 12.7527,-51.91037 15.5045,-67.5902"
       style="fill:#6980e0;fill-opacity:1;fill-rule:nonzero;stroke:none;stroke-width:0.0762267"
       id="path63692" /><path
       d="m 1433.3729,621.10638 c 0.8538,-3.75036 -0.9147,-7.62267 -4.3296,-9.39113 -4.7718,-2.46974 -9.4598,-4.74892 -14.0715,-6.82991 -0.2439,0.78513 -0.465,1.60838 -0.6632,2.47737 -0.7241,3.24725 -1.0595,7.12719 -0.808,11.77702 1.0672,19.67411 14.4679,34.5688 21.3283,40.97184 -1.799,-1.85231 -3.3693,-4.01715 -4.3754,-6.49451 -2.485,-6.1515 0.808,-23.19578 2.9194,-32.51068"
       style="fill:#6980e0;fill-opacity:1;fill-rule:nonzero;stroke:none;stroke-width:0.0762267"
       id="path63694" /><path
       d="m 1497.5177,762.87276 c 0,0 4.9242,6.2201 8.2477,6.02191 0,0 13.454,-18.83561 13.5684,-27.47972 0,0 -16.7852,22.33442 -21.8161,21.45781"
       style="fill:#6980e0;fill-opacity:1;fill-rule:nonzero;stroke:none;stroke-width:0.0762267"
       id="path63696" /><g
       id="g63698"
       transform="matrix(0.07717189,0,0,0.07717189,369.14175,248.66281)"><path
         d="m 16294.2,4301.24 c 0,0 -92.7,-1.67 -112.7,1.19 -19.7,2.86 -46,11.36 -72.3,12.35 -26,0.88 -49.8,-7.51 -74.2,-12.55 -3.7,-0.69 -7.3,-0.99 -11.1,-0.99 h -153.7 c 0,0 -15.5,7.31 -32.4,34.48 -7.2,11.75 -8.2,39.7 -24.8,48.99 -93.1,51.95 154.7,22.52 154.7,22.52 0,0 155.6,2.86 169.9,-7.9 25.6,-19.17 162.4,-90.78 156.6,-98.09"
         style="fill:#ed985f;fill-opacity:1;fill-rule:nonzero;stroke:none"
         id="path63700" /></g><path
       d="m 1593.8835,580.5919 c 0,0 7.2796,-2.10386 9.2615,-3.45307 l 2.0886,-1.31873 c 0,0 1.212,1.34922 -0.6936,2.85088 -1.0062,0.79276 -3.7809,3.10243 -3.8724,5.75512 -0.084,2.66031 -8.3087,0.33539 -6.7841,-3.8342"
       style="fill:#ed985f;fill-opacity:1;fill-rule:nonzero;stroke:none;stroke-width:0.0762267"
       id="path63702" /><g
       id="g63704"
       transform="matrix(0.08398885,0,0,0.08398885,369.14175,248.66281)"><path
         d="m 15930.2,1545.79 v 0 c -204.2,0 -369.8,165.55 -369.8,369.76 V 4251.03 H 16300 V 1915.55 c 0,-204.21 -165.5,-369.76 -369.8,-369.76"
         style="fill:#c7d8ff;fill-opacity:1;fill-rule:nonzero;stroke:none"
         id="path63706" /></g><g
       id="g63708"
       transform="matrix(0.08349871,0,0,0.08349871,369.14175,248.66281)"><path
         d="m 16023.6,1662.67 v 0 c -152.7,0 -276.4,123.79 -276.4,276.43 v 835.58 H 16300 V 1939.1 c 0,-152.64 -123.8,-276.43 -276.4,-276.43"
         style="fill:#d14842;fill-opacity:1;fill-rule:nonzero;stroke:none"
         id="path63710" /></g><g
       id="g63712"
       transform="matrix(0.08967841,0,0,0.08967841,369.14175,248.66281)"><path
         d="m 15953.6,1447.72 v 0 c -191.2,0 -346.3,155.05 -346.3,346.3 V 3981.33 H 16300 V 1794.02 c 0,-191.25 -155,-346.3 -346.4,-346.3"
         style="fill:#c7d8ff;fill-opacity:1;fill-rule:nonzero;stroke:none"
         id="path63714" /></g><g
       id="g63716"
       transform="matrix(0.08918827,0,0,0.08918827,369.14175,248.66281)"><path
         d="m 16041.2,1556.61 v 0 c -142.9,0 -258.7,115.89 -258.7,258.79 v 999.28 H 16300 V 1815.4 c 0,-142.9 -115.9,-258.79 -258.8,-258.79"
         style="fill:#d14842;fill-opacity:1;fill-rule:nonzero;stroke:none"
         id="path63718" /></g><g
       id="g63720"
       transform="matrix(0.08072253,0,0,0.08072253,369.14175,248.66281)"><path
         d="m 14851.2,3398.74 v 0 c -195.9,82.62 -287.6,308.31 -205,504.07 l 944.9,2238.75 708.9,-299.16 -944.8,-2238.75 c -82.6,-195.85 -308.3,-287.54 -504,-204.91"
         style="fill:#c7d8ff;fill-opacity:1;fill-rule:nonzero;stroke:none"
         id="path63722" /></g><g
       id="g63724"
       transform="matrix(0.07936951,0,0,0.07936951,369.14175,248.66281)"><path
         d="m 15175.9,3549.64 -55.1,23.24 c -132.7,55.99 -194.8,208.98 -138.9,341.71 l 693.3,1642.67 624.8,-15.08 -782.3,-1853.67 c -56,-132.72 -209,-194.96 -341.8,-138.87"
         style="fill:#d14842;fill-opacity:1;fill-rule:nonzero;stroke:none"
         id="path63726" /></g><path
       d="m 1562.1274,559.2408 c 0,0 5.2063,-4.62696 9.1625,-5.60266 3.9561,-0.9757 8.4611,-12.31061 9.1777,-13.93424 0.7241,-1.616 -3.7809,0.72416 -5.5798,3.48356 -1.799,2.75941 -3.0262,3.8342 -3.5522,3.23964 -0.526,-0.60219 0.3125,-8.16388 3.3159,-12.36397 2.9957,-4.19247 4.7946,-7.91233 2.6374,-7.67603 -2.1572,0.24393 -15.0014,3.3616 -17.6388,11.15959 -2.6375,7.79799 -0.7013,8.0724 -6.769,16.09145 -6.0676,8.02667 9.2463,5.60266 9.2463,5.60266"
       style="fill:#f09959;fill-opacity:1;fill-rule:nonzero;stroke:none;stroke-width:0.0762267"
       id="path63728" /><path
       d="m 1493.3481,749.11384 c 0,0 -31.4435,-3.11004 -33.9666,-23.53879 -2.5155,-20.43638 30.1476,-103.65305 34.828,-111.19187 8.5145,-13.7208 58.6716,-60.74504 58.6716,-60.74504 l 9.2463,5.60266 c 0,0 -35.575,60.2267 -41.0862,65.85986 -8.6441,8.84991 -17.0442,116.93173 -27.6931,124.01318"
       style="fill:#f09959;fill-opacity:1;fill-rule:nonzero;stroke:none;stroke-width:0.0762267"
       id="path63730" /><path
       d="m 1509.4624,710.07816 c 0,0 3.2244,52.68026 -37.0919,39.94278 -40.3239,-12.73748 6.2582,-103.34813 6.2582,-103.34813 0,0 23.6608,1.16626 32.0533,21.81607 l -1.2196,41.58928"
       style="fill:#8c9df4;fill-opacity:1;fill-rule:nonzero;stroke:none;stroke-width:0.0762267"
       id="path63732" /><g
       id="g63734"
       transform="matrix(0.09125935,0,0,0.09125935,369.14175,248.66281)"><path
         d="m 16300,1604.98 h -3088.9 v 111.26 H 16300 v -111.26"
         style="fill:#94b0ed;fill-opacity:1;fill-rule:nonzero;stroke:none"
         id="path63736" /></g><path
       d="m 1587.9683,397.63261 h -13.1949 v -32.6174 h 13.1949 v 32.6174"
       style="fill:#94b0ed;fill-opacity:1;fill-rule:nonzero;stroke:none;stroke-width:0.0762267"
       id="path63738" /><g
       id="g63740"
       transform="matrix(0.09125935,0,0,0.09125935,369.14175,248.66281)"><path
         d="m 16300,1716.24 h -164.8 v -441.27 h 164.8 v 441.27"
         style="fill:#94b0ed;fill-opacity:1;fill-rule:nonzero;stroke:none"
         id="path63742" /></g><g
       id="g63744"
       transform="matrix(0.08411386,0,0,0.08411386,369.14175,248.66281)"><path
         d="m 16267.3,4221.42 h -740.7 c -17.9,0 -32.7,14.78 -32.7,32.72 0,18.03 14.8,32.81 32.7,32.81 h 740.7 c 17.9,0 32.7,-14.78 32.7,-32.81 0,-17.94 -14.8,-32.72 -32.7,-32.72"
         style="fill:#abc1ef;fill-opacity:1;fill-rule:nonzero;stroke:none"
         id="path63746" /></g><g
       id="g63748"
       transform="matrix(0.0898522,0,0,0.0898522,369.14175,248.66281)"><path
         d="M 16269.3,3951.8 H 15576 c -16.9,0 -30.6,13.83 -30.6,30.62 0,16.89 13.7,30.71 30.6,30.71 h 693.3 c 16.9,0 30.7,-13.82 30.7,-30.71 0,-16.79 -13.8,-30.62 -30.7,-30.62"
         style="fill:#abc1ef;fill-opacity:1;fill-rule:nonzero;stroke:none"
         id="path63750" /></g><g
       id="g63752"
       transform="matrix(0.08089785,0,0,0.08089785,369.14175,248.66281)"><path
         d="m 16249.9,5814.98 -723.5,263.55 c -17.6,6.41 -26.8,26.01 -20.4,43.63 6.5,17.62 26.1,26.76 43.7,20.35 l 723.5,-263.55 c 17.6,-6.4 26.8,-26.1 20.4,-43.72 -6.4,-17.53 -26.1,-26.67 -43.7,-20.26"
         style="fill:#abc1ef;fill-opacity:1;fill-rule:nonzero;stroke:none"
         id="path63754" /></g><path
       d="m 1061.9043,371.44112 c -0.6898,-1.8523 -55.9946,-3.94092 -56.2545,1.92092 -0.01,0.0915 -0.01,0.19056 -0.01,0.29728 0,0.15245 0,0.31253 0.011,0.49547 0.01,0.60982 0.048,1.21201 0.1265,1.8142 l 0.01,0.0381 c 0.1525,1.15103 0.4056,2.29443 0.6586,3.41496 0.3377,1.4788 1.0352,3.18627 1.7327,4.96998 1.0046,2.5917 2.0093,5.35873 1.8782,7.85897 -0.3987,8.04954 -3.296,24.9871 -3.296,24.9871 l 15.9146,1.76846 c 0,0 2.5147,-23.3711 5.5355,-28.60787 4.0934,-7.11195 11.2465,-11.02238 18.7975,-13.17197 0.8515,-0.24393 1.6946,-0.48785 2.5376,-0.71653 6.7004,-1.83706 12.9715,-3.42258 12.3579,-5.06908"
       style="fill:#e38540;fill-opacity:1;fill-rule:nonzero;stroke:none;stroke-width:0.0762267"
       id="path63756" /><path
       d="m 1062.441,371.37252 c -0.6899,-1.85231 -5.8725,-5.98379 -18.966,-5.41972 -13.1018,0.5717 -10.5414,2.86613 -19.9325,2.05812 -9.3911,-0.81562 -17.6328,-0.51072 -17.8927,5.35112 -0.01,0.0915 -0.01,0.19056 -0.01,0.29728 0,0.56408 0.054,1.37208 0.138,2.30967 l 0.01,0.0381 c 0.1524,1.15103 0.4055,2.29443 0.6586,3.41496 0.3377,1.4788 1.0351,3.18627 1.7326,4.96998 5.9342,-1.57027 13.8077,-8.61362 22.0257,-9.68079 10.7556,-1.40257 19.2579,1.68461 19.2579,1.68461 l 0.084,0.11434 c 7.9809,-1.44069 13.5158,-3.48356 12.8945,-5.13768"
       style="fill:#0f2549;fill-opacity:1;fill-rule:nonzero;stroke:none;stroke-width:0.0762267"
       id="path63758" /><path
       d="m 1069.9615,612.86627 v 0 c -4.9852,0 -9.0268,4.04764 -9.0268,9.03286 v 57.00994 h 18.0536 v -57.00994 c 0,-4.98522 -4.0408,-9.03286 -9.0268,-9.03286"
       style="fill:#cde3fd;fill-opacity:1;fill-rule:nonzero;stroke:none;stroke-width:0.0762267"
       id="path63760" /><path
       d="m 1069.9615,615.48847 v 0 c -3.7039,0 -6.7072,3.00333 -6.7072,6.70795 v 20.2763 h 13.4144 v -20.2763 c 0,-3.70462 -3.0026,-6.70795 -6.7072,-6.70795"
       style="fill:#94b7ea;fill-opacity:1;fill-rule:nonzero;stroke:none;stroke-width:0.0762267"
       id="path63762" /><path
       d="m 1096.9145,612.86627 v 0 c -4.9852,0 -9.0268,4.04764 -9.0268,9.03286 v 57.00994 h 18.0535 v -57.00994 c 0,-4.98522 -4.0407,-9.03286 -9.0267,-9.03286"
       style="fill:#cde3fd;fill-opacity:1;fill-rule:nonzero;stroke:none;stroke-width:0.0762267"
       id="path63764" /><path
       d="m 1096.9145,615.48847 v 0 c -3.7039,0 -6.7072,3.00333 -6.7072,6.70795 v 25.90183 h 13.4144 v -25.90183 c 0,-3.70462 -3.0034,-6.70795 -6.7072,-6.70795"
       style="fill:#94b7ea;fill-opacity:1;fill-rule:nonzero;stroke:none;stroke-width:0.0762267"
       id="path63766" /><path
       d="m 1045.5743,612.86627 v 0 c -4.986,0 -9.0268,4.04764 -9.0268,9.03286 v 57.00994 h 18.0536 v -57.00994 c 0,-4.98522 -4.0408,-9.03286 -9.0268,-9.03286"
       style="fill:#cde3fd;fill-opacity:1;fill-rule:nonzero;stroke:none;stroke-width:0.0762267"
       id="path63768" /><path
       d="m 1045.5743,615.48847 v 0 c -3.7039,0 -6.7072,3.00333 -6.7072,6.70795 v 25.90183 h 13.4144 v -25.90183 c 0,-3.70462 -3.0034,-6.70795 -6.7072,-6.70795"
       style="fill:#94b7ea;fill-opacity:1;fill-rule:nonzero;stroke:none;stroke-width:0.0762267"
       id="path63770" /><path
       d="m 1030.3732,607.30172 h -5.0767 v 15.07764 h 5.0767 v -15.07764"
       style="fill:#77a4e5;fill-opacity:1;fill-rule:nonzero;stroke:none;stroke-width:0.0762267"
       id="path63772" /><path
       d="m 1117.1923,607.30172 h -5.0767 v 15.07764 h 5.0767 v -15.07764"
       style="fill:#77a4e5;fill-opacity:1;fill-rule:nonzero;stroke:none;stroke-width:0.0762267"
       id="path63774" /><path
       d="m 1117.1923,617.97346 h -91.8958 v 4.4059 h 91.8958 v -4.4059"
       style="fill:#77a4e5;fill-opacity:1;fill-rule:nonzero;stroke:none;stroke-width:0.0762267"
       id="path63776" /><path
       d="m 906.3714,813.10615 c 0,0 -9.94529,5.4426 -21.12851,2.0048 -22.59359,-6.9443 -11.70537,-25.50549 -23.15157,-32.94522 -11.44544,-7.43972 -21.91441,-30.18576 -14.69422,-41.82558 7.21867,-11.64743 17.79588,-21.56452 24.20884,-13.6217 6.41371,7.94282 12.85181,18.94995 12.90746,33.98947 0.0503,13.57598 5.50357,41.18528 14.84286,39.06618 9.34005,-2.1191 7.01514,13.33205 7.01514,13.33205"
       style="fill:#233862;fill-opacity:1;fill-rule:nonzero;stroke:none;stroke-width:0.0762267"
       id="path63778" /><path
       d="m 939.84254,793.05853 c 0,0 -10.90118,24.33922 -33.47114,20.04762 -22.5692,-4.2916 -25.67543,-46.61262 -10.80056,-52.07045 10.34854,-3.78847 44.2717,32.02283 44.2717,32.02283"
       style="fill:#233862;fill-opacity:1;fill-rule:nonzero;stroke:none;stroke-width:0.0762267"
       id="path63780" /><path
       d="m 929.73259,365.48782 c -1.0443,0 -1.9514,0.6403 -2.27079,1.5474 1.87441,0 3.713,0 5.60266,0 -0.65631,-0.9071 -1.75398,-1.51691 -3.01858,-1.53978 l -0.26603,-0.008 c -0.0152,0 -0.0312,0 -0.0473,0 m -139.51388,0 c -0.016,0 -0.0313,0 -0.0473,0 l -0.26603,0.008 c -1.24402,0.0229 -2.32644,0.60982 -2.9858,1.49405 1.84087,0 3.6787,0.008 5.5554,0.008 -0.33235,-0.89185 -1.22802,-1.50929 -2.25631,-1.50929"
       style="fill:#c9d7f6;fill-opacity:1;fill-rule:nonzero;stroke:none;stroke-width:0.0762267"
       id="path63782" /><path
       d="m 786.91962,366.98949 c -0.49243,0.66317 -0.74855,1.48642 -0.66089,2.36302 L 768.75327,662.3069 c -3.26021,16.9833 10.58255,32.52592 28.74051,32.52592 0.24164,0 0.48557,0 0.72873,-0.008 l 65.2043,-1.13578 c 17.12204,-0.38875 32.00911,-11.84562 36.76794,-28.30296 l 37.65293,-130.17193 h 60.18631 1.8241 c 2.94231,0 5.34961,-2.40876 5.34961,-5.35111 v -1.82182 -8.83467 -1.82182 c 0,-2.94235 -2.4073,-5.35111 -5.34961,-5.35111 h -1.8241 -78.62783 l 14.28717,-142.68111 c 0.0854,-0.85374 -0.15779,-1.66174 -0.62887,-2.31729 -1.88966,0 -3.72825,0 -5.60266,0 -0.0465,0.12959 -0.08,0.2668 -0.10062,0.41163 L 906.68393,512.03362 H 795.16429 l -2.57417,-144.58677 c -0.0221,-0.16008 -0.0617,-0.31253 -0.1151,-0.44974 -1.8767,0 -3.71453,-0.008 -5.5554,-0.008"
       style="fill:#bfd1f3;fill-opacity:1;fill-rule:nonzero;stroke:none;stroke-width:0.0762267"
       id="path63784" /><path
       d="m 867.15582,665.79046 20.85867,-52.77936 c 0,0 20.09793,-23.68363 36.25189,-16.05334 l -51.11533,99.26239 -5.99523,-30.42969"
       style="fill:#abddda;fill-opacity:1;fill-rule:nonzero;stroke:none;stroke-width:0.0762267"
       id="path63786" /><path
       d="m 1021.1558,559.17982 c -15.1493,15.06239 -109.24043,54.85272 -141.01019,58.26005 l -36.31287,13.27869 c 0,0 -14.79864,-35.44541 -15.03495,-69.32054 -0.11053,-15.78655 19.37759,-26.18387 4.63382,-26.18387 0,0 128.52505,0.51072 133.45997,0 8.07697,-0.83087 3.53005,-19.86467 6.19265,-38.18957 2.6626,-18.33251 36.28697,-95.2986 36.28697,-95.2986 0,0 9.7898,-3.13291 14.3169,-2.87374 4.8686,0.28966 7.1218,1.92091 7.1218,1.92091 0,0 8.7379,140.12751 -9.6541,158.40667"
       style="fill:#233862;fill-opacity:1;fill-rule:nonzero;stroke:none;stroke-width:0.0762267"
       id="path63788" /><path
       d="m 978.8584,371.56309 c 0.25765,-5.86184 55.5677,-3.77322 56.2568,-1.92092 0.6144,1.6465 -5.656,3.22439 -12.3594,5.06908 -0.8438,0.22868 -1.6892,0.4726 -2.5353,0.70891 -7.5556,2.15721 -14.7026,6.06764 -18.7967,13.17197 -3.02088,5.24439 -5.54093,28.60787 -5.54093,28.60787 l -15.91613,-1.76846 c 0,0 2.905,-16.93757 3.3029,-24.9871 0.20886,-4.21534 -2.78075,-9.18532 -3.61238,-12.82133 -0.44593,-1.97427 -0.89262,-4.0019 -0.79886,-6.06002"
       style="fill:#f09959;fill-opacity:1;fill-rule:nonzero;stroke:none;stroke-width:0.0762267"
       id="path63790" /><path
       d="m 996.75185,366.21197 c 9.39035,0.80801 6.83375,-1.48642 19.93175,-2.05812 13.098,-0.56407 18.2815,3.56741 18.9698,5.41972 0.6151,1.6465 -4.9159,3.68937 -12.8976,5.13768 l -0.084,-0.12196 c 0,0 -8.5709,-4.27632 -19.3295,-2.88137 -8.76992,1.1434 -17.6366,5.07669 -23.68519,5.91519 -0.44593,-1.97427 -0.89262,-4.0019 -0.79886,-6.06002 0.25765,-5.86184 8.50309,-6.16674 17.89345,-5.35112"
       style="fill:#304f7f;fill-opacity:1;fill-rule:nonzero;stroke:none;stroke-width:0.0762267"
       id="path63792" /><path
       d="m 998.98453,558.97401 c -8.89946,9.29965 -67.86842,28.37157 -97.77215,38.11334 -7.2019,2.34778 -77.21306,37.04617 -77.21306,37.04617 0,0 -11.06659,-98.91175 2.28528,-99.04133 25.01531,-0.25155 121.87427,-4.65745 125.66502,-4.93187 11.46602,-0.82325 5.44106,-27.36538 9.98036,-48.40394 4.64144,-21.52642 18.06725,-80.0304 18.06725,-80.0304 0,0 9.78903,-3.13291 14.31613,-2.87374 4.8686,0.28966 7.12264,1.92091 7.12264,1.92091 0,0 15.4771,139.46434 -2.45147,158.20086"
       style="fill:#2b478b;fill-opacity:1;fill-rule:nonzero;stroke:none;stroke-width:0.0762267"
       id="path63794" /><path
       d="m 917.34118,756.51546 c 0,0 -0.56789,-3.99428 -1.47575,-8.94902 -0.54121,-2.96521 -1.20438,-6.28108 -1.93768,-9.27678 -0.60219,-2.46975 -1.24859,-4.72606 -1.92091,-6.3878 -2.38285,-5.89995 -4.26031,-11.65506 -3.16036,-12.82895 0.0877,-0.0838 -12.50117,-1.33397 -19.48506,3.94092 -6.57379,4.95473 -9.30576,18.28678 -9.19294,18.30203 3.56055,0.65554 7.71719,1.43306 15.01589,19.9104 l 1.30043,-0.83849 20.85638,-3.87231"
       style="fill:#f09959;fill-opacity:1;fill-rule:nonzero;stroke:none;stroke-width:0.0762267"
       id="path63796" /><path
       d="m 915.86543,747.56644 c -0.54121,-2.96521 -1.20438,-6.28108 -1.93768,-9.27678 -11.91652,7.82085 -16.1753,14.78797 -18.59397,21.24437 l 20.53165,-11.96759"
       style="fill:#e38540;fill-opacity:1;fill-rule:nonzero;stroke:none;stroke-width:0.0762267"
       id="path63798" /><path
       d="m 921.54432,744.57073 c 0,0 -31.03112,5.21391 -27.48505,24.49164 3.54606,19.2701 1.92929,32.92992 21.89154,30.41444 19.96224,-2.51548 22.44723,-10.58026 22.82836,-17.30345 0.38114,-6.71557 -9.07173,-38.46399 -17.23485,-37.60263"
       style="fill:#f09959;fill-opacity:1;fill-rule:nonzero;stroke:none;stroke-width:0.0762267"
       id="path63800" /><path
       d="m 937.99556,792.82985 c 0,0 -20.52327,-16.53357 -34.1404,-17.47116 -13.61866,-0.92996 -14.93357,5.35874 -14.93357,5.35874 0,0 4.54158,4.61171 9.71052,15.16911 1.52377,3.11767 4.59265,5.18341 8.05334,5.36636 9.71891,0.51834 28.10326,0.28966 31.31011,-8.42305"
       style="fill:#233862;fill-opacity:1;fill-rule:nonzero;stroke:none;stroke-width:0.0762267"
       id="path63802" /><path
       d="m 925.57366,794.78887 c 0,0 6.46098,-6.67745 8.40476,-11.53309 1.87594,-4.68795 2.11758,-15.75606 0.35674,-20.09336 0,0 11.0704,19.87992 5.50738,29.89611 -5.89766,10.626 -14.26888,1.73034 -14.26888,1.73034"
       style="fill:#233862;fill-opacity:1;fill-rule:nonzero;stroke:none;stroke-width:0.0762267"
       id="path63804" /><path
       d="m 931.56966,707.04434 c 0.0297,13.03476 -19.38445,25.31488 -19.38445,25.31488 0,0 -4.7131,-12.94329 -27.60092,10.82419 -0.81029,0.83849 -54.01194,-34.30963 -54.01194,-34.30963 0,0 -8.91776,-45.56831 -10.87831,-66.40106 -5.90452,-62.73456 1.54359,-112.3124 1.54359,-112.3124 0,0 76.79686,-13.67506 127.50818,65.85986 0,0 -17.92699,41.04044 -17.92699,52.46682 0,7.38637 0.73788,52.726 0.75084,58.55734"
       style="fill:#8c9df4;fill-opacity:1;fill-rule:nonzero;stroke:none;stroke-width:0.0762267"
       id="path63806" /><path
       d="m 828.79779,628.18021 c 0,0 21.69564,-28.98138 84.17713,-23.90468 l -29.10411,27.56356 -55.07302,-3.65888"
       style="fill:#6980e0;fill-opacity:1;fill-rule:nonzero;stroke:none;stroke-width:0.0762267"
       id="path63808" /><path
       d="m 907.28612,636.1459 -7.06926,-9.12433 c -2.44154,-0.41163 -25.54585,9.66554 -36.63683,14.04095 -15.26135,6.02191 -8.07317,44.08952 -3.23964,31.19958 6.43659,-17.16625 27.87305,-26.43541 46.94573,-36.1162"
       style="fill:#6980e0;fill-opacity:1;fill-rule:nonzero;stroke:none;stroke-width:0.0762267"
       id="path63810" /><path
       d="m 971.79905,662.53558 19.65886,9.05573 -32.89867,71.40915 -19.65886,-9.05573 32.89867,-71.40915"
       style="fill:#314387;fill-opacity:1;fill-rule:nonzero;stroke:none;stroke-width:0.0762267"
       id="path63812" /><path
       d="m 955.59478,713.12723 9.39342,4.32967 -15.71947,34.11907 -9.39342,-4.32968 15.71947,-34.11906"
       style="fill:#314387;fill-opacity:1;fill-rule:nonzero;stroke:none;stroke-width:0.0762267"
       id="path63814" /><path
       d="m 902.71938,618.68237 17.17692,2.64506 c -0.048,0.32016 -4.81066,32.42683 3.52015,57.49017 8.36512,25.17005 36.83578,29.80463 37.12316,29.84274 l -2.6283,17.1815 c -1.6,-0.24393 -39.30629,-6.39542 -50.9865,-41.53592 -9.67774,-29.11859 -4.43335,-64.15238 -4.20543,-65.62355"
       style="fill:#314387;fill-opacity:1;fill-rule:nonzero;stroke:none;stroke-width:0.0762267"
       id="path63816" /><path
       d="m 875.82356,606.09734 h 74.30272 v 4.20772 c 0,8.59074 -6.96712,15.55786 -15.56168,15.55786 h -40.02815 c -10.33482,0 -18.71289,-8.37731 -18.71289,-18.71365 v -1.05193"
       style="fill:#314387;fill-opacity:1;fill-rule:nonzero;stroke:none;stroke-width:0.0762267"
       id="path63818" /><path
       d="m 912.97492,642.69377 h 80.40695 v 5.79323 h -80.40695 v -5.79323"
       style="fill:#314387;fill-opacity:1;fill-rule:nonzero;stroke:none;stroke-width:0.0762267"
       id="path63820" /><path
       d="m 937.61977,606.09734 h 55.7621 v 9.8866 h -55.7621 v -9.8866"
       style="fill:#314387;fill-opacity:1;fill-rule:nonzero;stroke:none;stroke-width:0.0762267"
       id="path63822" /><path
       d="m 959.34513,615.98394 h 17.62209 v 4.01715 h -17.62209 v -4.01715"
       style="fill:#314387;fill-opacity:1;fill-rule:nonzero;stroke:none;stroke-width:0.0762267"
       id="path63824" /><path
       d="m 938.23873,623.53039 c 0,0 4.30604,-5.55693 5.71776,-6.2201 1.41172,-0.66317 2.32415,-0.49548 2.32415,-0.49548 l -2.90195,5.22153 -5.13996,1.49405"
       style="fill:#f09959;fill-opacity:1;fill-rule:nonzero;stroke:none;stroke-width:0.0762267"
       id="path63826" /><path
       d="m 937.24397,629.25501 12.52023,-6.08289 c 0,0 -0.53282,-0.86898 -2.07489,-0.80038 -1.5413,0.0686 -5.42962,1.49404 -5.42962,1.49404 l -5.01572,5.38923"
       style="fill:#f09959;fill-opacity:1;fill-rule:nonzero;stroke:none;stroke-width:0.0762267"
       id="path63828" /><path
       d="m 913.37587,626.4956 c 0,0 20.55224,4.58123 23.8681,2.75941 3.31586,-1.82944 11.42028,-8.46879 12.43562,-10.77845 1.01458,-2.30967 -7.38332,1.75321 -10.11452,2.48499 -1.76846,0.4726 -6.42515,-1.1434 -8.72948,-1.91329 -9.69984,-3.23201 -15.64324,-1.57027 -15.64324,-1.57027 l -1.81648,9.01761"
       style="fill:#f09959;fill-opacity:1;fill-rule:nonzero;stroke:none;stroke-width:0.0762267"
       id="path63830" /><path
       d="M 1136.4777,599.19883 H 845.42893 v 8.21723 h 291.04877 v -8.21723"
       style="fill:#2557a0;fill-opacity:1;fill-rule:nonzero;stroke:none;stroke-width:0.0762267"
       id="path63832" /><path
       d="m 1135.2199,361.12003 c -0.6022,0.85374 -1.8523,2.62982 -9.7143,121.90171 -3.8716,58.74028 -7.4756,117.79309 -7.5114,118.38766 l 3.0765,0.18295 c 3.9242,-64.37344 14.5913,-232.78105 16.7867,-238.91729 0,0.008 -0.038,0.0991 -0.122,0.21343 l -2.5155,-1.76846"
       style="fill:#2557a0;fill-opacity:1;fill-rule:nonzero;stroke:none;stroke-width:0.0762267"
       id="path63834" /><path
       d="m 842.9287,362.41588 -2.5193,1.77609 c -0.0838,-0.12197 -0.11662,-0.21344 -0.11815,-0.21344 2.20372,6.10576 13.25582,173.59865 17.32861,237.62144 l 3.07499,-0.19819 c -0.0374,-0.58695 -3.77703,-59.31198 -7.78198,-117.73973 -8.1311,-118.61634 -9.38275,-120.39243 -9.98417,-121.24617"
       style="fill:#2557a0;fill-opacity:1;fill-rule:nonzero;stroke:none;stroke-width:0.0762267"
       id="path63836" /><path
       d="m 884.58429,743.18341 c 0,0 -31.36423,0 -41.76841,-10.41257 -16.31327,-16.32775 -28.76414,-87.72166 -16.85143,-102.05228 13.41513,-16.14481 89.66468,-16.99093 89.66468,-16.99093 0,0 1.82944,3.32349 -2.25326,12.76797 -0.85679,1.98952 -49.7966,21.66363 -51.28074,24.2782 -1.48413,2.60695 -2.81657,39.37871 -1.12663,45.52258 1.68995,6.13624 23.61579,46.88703 23.61579,46.88703"
       style="fill:#8c9df4;fill-opacity:1;fill-rule:nonzero;stroke:none;stroke-width:0.0762267"
       id="path63838" /><g
       id="g63840"
       transform="matrix(0.07935884,0,0,0.07935884,369.14175,248.66281)"
       style="fill:#f99746;fill-opacity:1"><path
         d="m 16282,12129.5 c 16,-18.2 18,-38.6 10.1,-60.3 l -0.2,-0.3 c -14.5,-40.2 -62.6,-85.1 -118.4,-130 -7.1,-5.7 -13.4,-11 -19,-15.8 -1.5,-1.3 -2.9,-2.6 -4.2,-3.8 -1.2,-1 -2.3,-2.1 -3.4,-3 -52.1,-48 -32.5,-59 -126,-156.4 -106.6,-111 -180.1,-113 -201.1,-102.9 -17.6,8.6 18.3,67.5 58.1,133.7 2,3.1 3.8,6.4 5.8,9.6 5.3,8.8 10.6,17.7 15.9,26.6 46.5,79.6 34.6,117 23.6,235.5 -9,96.3 -149.9,538 -149.9,538 l 204.4,35.2 c 0,0 61.6,-351.7 129.4,-405.9 36.3,-28.9 76.9,-29.2 111.7,-50.6 2.5,-1.5 4.9,-3.1 7.3,-4.6 19.8,-13.2 40,-26.7 55.9,-45"
         style="fill:#f99746;fill-opacity:1;fill-rule:nonzero;stroke:none"
         id="path63842" /></g><g
       id="g63844"
       transform="matrix(0.07935884,0,0,0.07935884,369.14175,248.66281)"><path
         d="m 16282,12129.5 c 16,-18.2 18,-38.6 10.1,-60.3 l -0.2,-0.3 c -17.7,-40.2 -64.6,-84.9 -118.6,-129.6 -7.1,-5.8 -13.2,-11.2 -18.8,-16.2 -1.5,-1.3 -2.9,-2.6 -4.2,-3.8 -1.2,-1 -2.3,-2.1 -3.4,-3 -52.1,-48 -32.5,-59 -126,-156.4 -106.6,-111 -180.1,-113 -201.1,-102.9 -17.6,8.6 18.3,67.5 58.1,133.7 20.8,7.6 117.2,46.7 190.1,140.1 62,79 104,179.6 146.1,241.4 4.6,0.9 7.4,1.4 12,2.3 19.8,-13.2 40,-26.7 55.9,-45"
         style="fill:#233862;fill-opacity:1;fill-rule:nonzero;stroke:none"
         id="path63846" /></g><path
       d="m 1530.4552,1221.3838 c -1.0062,-5.0081 -8.141,-4.1772 -16.1143,-2.2258 -7.9733,1.9514 -6.0829,-0.3659 -17.433,0.8919 -11.3502,1.2501 -14.788,5.4883 -15.131,7.1729 -0.3126,1.5017 5.2977,2.0276 11.312,2.7213 0.7547,0.084 1.5169,0.1753 2.2792,0.2668 6.7918,0.8537 11.7618,5.2368 17.9285,8.8347 5.8466,3.4149 14.5669,17.3034 14.5669,17.3034 l 15.5655,-1.2349 c 0,0 -8.1715,-12.402 -11.3273,-17.7989 -1.8599,-3.171 -1.7608,-7.3711 -1.5245,-10.6107 0.1143,-1.7609 0.2287,-3.5598 -0.122,-5.3207"
       style="fill:#f99746;fill-opacity:1;fill-rule:nonzero;stroke:none;stroke-width:0.0762267"
       id="path63848" /><path
       d="m 1514.3409,1219.158 c -7.9733,1.9514 -6.0829,-0.3659 -17.433,0.8919 -11.3502,1.2501 -14.788,5.4883 -15.131,7.1729 -0.3126,1.5017 5.2977,2.0276 11.312,2.7213 l 0.053,-0.1144 c 0,0 6.807,-4.8327 16.2591,-5.0538 7.6989,-0.1906 15.8552,2.02 21.1758,1.9286 0.1143,-1.7609 0.2287,-3.5598 -0.122,-5.3207 -1.0062,-5.0081 -8.141,-4.1772 -16.1143,-2.2258"
       style="fill:#233862;fill-opacity:1;fill-rule:nonzero;stroke:none;stroke-width:0.0762267"
       id="path63850" /><g
       id="g63852"
       transform="matrix(0.0781819,0,0,0.0781819,369.14175,248.66281)"><path
         d="m 15616.9,13714.8 186.1,-500.8 243.1,-653.9 c 0,0 65.9,-6.4 129.1,11.8 58.1,16.8 124.8,60.7 124.8,60.7 0,0 -67.5,702.2 -193.3,1105.2 -32.3,103.5 -68.5,187.1 -108.4,234.3 -195.1,230.6 -381.4,-257.3 -381.4,-257.3"
         style="fill:#233862;fill-opacity:1;fill-rule:nonzero;stroke:none"
         id="path63854" /></g><g
       id="g63856"
       transform="matrix(0.08515435,0,0,0.08515435,369.14175,248.66281)"><path
         d="m 14512,13322.1 c 97.3,31.4 351.1,0.5 626.3,-49.3 76.1,-13.8 152.9,21 192.9,87.1 l 692.8,54.1 c 0,0 276,-548.6 70.1,-827.3 -120.2,-162.8 -525.4,-139.5 -648.3,-114.3 -337.4,69.2 -721.1,269.7 -770.9,279.7 -81.4,16.2 -114,-146.6 -195.5,-317.7 -81.3,-171 -765.5,-757.3 -765.5,-757.3 0,0 -105.1,-1.1 -148.5,15.2 -46.8,17.5 -63.9,40.3 -63.9,40.3 0,0 758.1,1508.1 1010.5,1589.5"
         style="fill:#2b478b;fill-opacity:1;fill-rule:nonzero;stroke:none"
         id="path63858" /></g><g
       id="g63860"
       transform="matrix(0.08462381,0,0,0.08462381,369.14175,248.66281)"><path
         d="m 16299.6,13018.1 c -3,-400.6 -106.3,-584.6 -106.3,-584.6 -897.6,120.4 -1096.2,945.8 -1096.2,945.8 185.7,3.5 262.7,118.7 262.7,118.7 l 755.4,482 46,29.3 47.2,30.1 c 0,0 14.1,-76.3 31.3,-199.4 22.7,-163.8 51,-410.4 58.2,-669.4 1.5,-50.6 2.1,-101.5 1.7,-152.5"
         style="fill:#8c9df4;fill-opacity:1;fill-rule:nonzero;stroke:none"
         id="path63862" /></g><g
       id="g63864"
       transform="matrix(0.08693348,0,0,0.08693348,369.14175,248.66281)"><path
         d="m 15021.4,14021 c 241.6,-133.1 731.9,-408.9 734.4,-407.2 0,0 180.2,-67.8 282.4,0 170.3,113.2 261.8,417.7 -49.8,679.8 -155.4,130.7 -265.8,162.5 -282.6,371.2 -9.2,113.7 -165.1,489.9 -424.1,451.9 -20.8,-3 -41.6,-4.4 -62.6,-3.8 -30.1,0.9 -79.2,-3.7 -129.7,-33.7 -145.4,-86.7 -430.3,-1006.7 -68,-1058.2"
         style="fill:#152949;fill-opacity:1;fill-rule:nonzero;stroke:none"
         id="path63866" /></g><g
       id="g63868"
       transform="matrix(0.0829636,0,0,0.0829636,369.14175,248.66281)"
       style="fill:#f09959;fill-opacity:1"><path
         d="m 15952.4,14810.5 c -1.2,-0.7 124.6,-43.6 208.6,-6.4 79.1,35 139,165.1 137.8,165.1 -35.9,1.7 -77,59.2 -105.8,239.5 l -15.4,-5.5 -257.5,-92.7 c 0,0 18.6,-82.6 30.8,-161.3 10.1,-66 15.6,-129.3 1.5,-138.7"
         style="fill:#f09959;fill-opacity:1;fill-rule:nonzero;stroke:none"
         id="path63870" /></g><g
       id="g63872"
       transform="matrix(0.08234082,0,0,0.08234082,369.14175,248.66281)"
       style="fill:#e38540;fill-opacity:1"><path
         d="m 16040.5,15224.9 c 0,0 10.4,-45 25.5,-128.9 149,26.8 213,141.6 234,222.2 l -259.5,-93.3"
         style="fill:#e38540;fill-opacity:1;fill-rule:nonzero;stroke:none"
         id="path63874" /></g><g
       id="g63876"
       transform="matrix(0.0826282,0,0,0.0826282,369.14175,248.66281)"
       style="fill:#f09959;fill-opacity:1"><path
         d="m 15946.2,15089.5 c 0,0 353.8,47.5 320.8,267.4 -33,219.8 -9.4,374 -236.7,353 -227.4,-21 -258.5,-111.5 -265.4,-187.5 -6.9,-76.1 88.4,-439.6 181.3,-432.9"
         style="fill:#f09959;fill-opacity:1;fill-rule:nonzero;stroke:none"
         id="path63878" /></g><g
       id="g63880"
       transform="matrix(0.08298646,0,0,0.08298646,369.14175,248.66281)"><path
         d="m 15709.7,15575.3 c 0,0 225.5,-194.3 378.9,-209.9 153.3,-15.7 211.4,33.5 211.4,33.5 0,0 -90.4,75.1 -144.8,196.2 -16,35.7 -49.9,60.2 -88.9,63.6 -109.6,9.5 -317.1,13.8 -356.6,-83.4"
         style="fill:#152949;fill-opacity:1;fill-rule:nonzero;stroke:none"
         id="path63882" /></g><g
       id="g63884"
       transform="matrix(0.0806989,0,0,0.0806989,369.14175,248.66281)"><path
         d="m 16300,16034.8 c 0,0 -77.5,-75 -102,-130.6 -23.5,-53.7 -30.6,-182.1 -11.9,-233.1 0,0 -120.8,235 -52.4,349.2 72.6,121 166.3,14.5 166.3,14.5"
         style="fill:#152949;fill-opacity:1;fill-rule:nonzero;stroke:none"
         id="path63886" /></g><g
       id="g63888"
       transform="matrix(0.08468327,0,0,0.08468327,369.14175,248.66281)"><path
         d="m 15337.7,14001.2 c 10.4,-698.7 2.8,-552.7 79.3,-619 18.4,-16 70.2,-25.5 138.3,-30 214.3,-14.2 591,21.1 605.3,60.7 49.4,137 14.5,179.5 55.8,389.3 4.2,22.3 9.6,46.5 15.8,72.8 34.4,144 67.8,193 -54.2,424.5 -110.5,209.7 -223.3,381.3 -233.6,375.1 -291.9,-173.2 -317.5,-29 -317.5,-29 0,0 -294.3,-303.5 -289.2,-644.4"
         style="fill:#8c9df4;fill-opacity:1;fill-rule:nonzero;stroke:none"
         id="path63890" /></g><g
       id="g63892"
       transform="matrix(0.0781819,0,0,0.0781819,369.14175,248.66281)"><path
         d="m 15803,13214 243.1,-653.9 c 0,0 65.9,-6.4 129.1,11.8 58.1,16.8 124.8,60.7 124.8,60.7 0,0 -67.5,702.2 -193.3,1105.2 L 15803,13214"
         style="fill:#2b478b;fill-opacity:1;fill-rule:nonzero;stroke:none"
         id="path63894" /></g><g
       id="g63896"
       transform="matrix(0.08118675,0,0,0.08118675,369.14175,248.66281)"><path
         d="m 16300,15276.4 c 0,0 -276.1,-40.4 -315.6,-192.7 -35,-135.3 -160.4,-902.2 -160.4,-902.2 0,0 56.5,-132.7 130,-59.1 73.5,73.6 231.5,765.9 231.5,765.9 l 114.5,388.1"
         style="fill:#8c9df4;fill-opacity:1;fill-rule:nonzero;stroke:none"
         id="path63898" /></g><g
       id="g63900"
       transform="matrix(0.08076217,0,0,0.08076217,369.14175,248.66281)"
       style="fill:#f09959;fill-opacity:1"><path
         d="m 16300,14111.5 c 0,0 -46.5,-59.9 -61.7,-67.1 -15.2,-7.1 -25,-5.4 -25,-5.4 l 31.2,56.4 55.5,16.1"
         style="fill:#f09959;fill-opacity:1;fill-rule:nonzero;stroke:none"
         id="path63902" /></g><g
       id="g63904"
       transform="matrix(0.08081477,0,0,0.08081477,369.14175,248.66281)"
       style="fill:#f09959;fill-opacity:1"><path
         d="m 16300,14163.9 -134.9,-65.5 c 0,0 5.8,-9.4 22.4,-8.7 16.6,0.8 58.5,16.1 58.5,16.1 l 54,58.1"
         style="fill:#f09959;fill-opacity:1;fill-rule:nonzero;stroke:none"
         id="path63906" /></g><g
       id="g63908"
       transform="matrix(0.08461314,0,0,0.08461314,369.14175,248.66281)"><path
         d="m 16300,13172.3 c -199.3,15.7 -702.2,185.2 -616.2,304.8 39.7,55.4 306.1,80 443.6,255.4 37.1,47.3 -4.6,176.2 -10.1,249.3 -2.3,31.4 -0.7,54.2 10.1,59.4 10,4.7 22.7,-8.5 35.8,-30.1 34.5,-56.6 72,-170.9 72,-170.9 l 6.6,1.6 c 22.7,-163.9 51,-410.5 58.2,-669.5"
         style="fill:#6980e0;fill-opacity:1;fill-rule:nonzero;stroke:none"
         id="path63910" /></g><g
       id="g63912"
       transform="matrix(0.08209004,0,0,0.08209004,369.14175,248.66281)"
       style="fill:#f09959;fill-opacity:1"><path
         d="m 16300,13914.7 c 0,0 -218,48.5 -253.2,29.1 -35.2,-19.3 -121.2,-89.8 -132,-114.3 -10.7,-24.5 78.4,18.6 107.4,26.4 18.7,5 68.1,-12.1 92.6,-20.3 102.9,-34.3 166,-16.7 166,-16.7 l 19.2,95.8"
         style="fill:#f09959;fill-opacity:1;fill-rule:nonzero;stroke:none"
         id="path63914" /></g><g
       id="g63916"
       transform="matrix(0.0863008,0,0,0.0863008,369.14175,248.66281)"><path
         d="m 15645.6,14399.6 c 0,0 276.6,-18.4 373,-152.9 135.7,-189.2 281.4,-998.7 127.1,-1106.3 -173.7,-121.2 -667.3,-29 -667.3,-29 0,0 -46.2,137.3 8,142.4 147.1,14 434.4,75.2 431.7,139.4 -4.1,97.6 -185.2,421.4 -185.2,485.7 0,64.3 -87.3,520.7 -87.3,520.7"
         style="fill:#8c9df4;fill-opacity:1;fill-rule:nonzero;stroke:none"
         id="path63918" /></g><g
       id="g63920"
       transform="matrix(0.08209004,0,0,0.08209004,369.14175,248.66281)"
       style="fill:#7bcee8;fill-opacity:1"><path
         d="M 14912.4,13792.2 H 16300 v -30.6 h -1375.2 l -12.4,30.6"
         style="fill:#7bcee8;fill-opacity:1;fill-rule:nonzero;stroke:none"
         id="path63922" /></g><g
       id="g63924"
       transform="matrix(0.08045574,0,0,0.08045574,369.14175,248.66281)"><path
         d="m 16300,14041.1 h -1072.1 l -322.5,802 h 1070.5 l 324.1,-802"
         style="fill:#7bcee8;fill-opacity:1;fill-rule:nonzero;stroke:none"
         id="path63926" /></g><g
       id="g63928"
       transform="matrix(0.07704383,0,0,0.07704383,369.14175,248.66281)"><path
         d="m 16184.9,15081.7 c -8.4,29.5 8.6,53.3 38.1,53.3 29.4,0 60.2,-23.8 68.6,-53.3 8.4,-29.4 -8.6,-53.3 -38,-53.3 -29.5,0 -60.2,23.9 -68.7,53.3"
         style="fill:#ffffff;fill-opacity:1;fill-rule:nonzero;stroke:none"
         id="path63930" /></g><path
       d="M 1167.662,1078.0929 H 984.52128 c -21.20626,0 -38.39766,17.1891 -38.39766,38.3954 v 246.8753 c 0,21.2063 17.1914,38.3954 38.39766,38.3954 h 406.57632 c 21.2063,0 38.3954,-17.1891 38.3954,-38.3954 v -10.2753 c -31.7408,-0.2211 -73.3987,-8.8804 -124.1123,-37.1072 0,0 -68.7336,-26.1305 -81.6235,-93.3853 -2.7137,-14.1858 -9.2463,-27.4187 -18.706,-38.4487 -14.5517,-16.9681 -33.6007,-47.0547 -35.1177,-89.4368 -0.2058,-5.6255 -0.968,-11.1824 -2.2715,-16.6174 m -97.3811,131.0565 c 0.9559,-3.0948 3.995,-7.5693 13.316,-10.0619 3.6894,-0.9833 6.9374,-1.3492 9.741,-1.3492 4.3122,0 7.5724,0.8766 9.7723,1.7761 2.5604,1.0443 5.2726,1.677 8.0343,1.8066 19.0627,0.8994 25.4627,15.7484 25.4627,15.7484 12.1353,4.7794 10.0467,19.0567 10.0467,19.0567 8.385,11.1824 4.6651,23.5845 4.6651,23.5845 4.566,19.7885 -3.5522,28.6612 -3.5522,28.6612 0.8385,9.2768 -1.4407,15.8399 -3.636,19.8418 -1.8828,3.4226 -3.0186,7.2111 -3.3387,11.0986 -0.5946,7.3559 -3.7351,12.7528 -6.3954,16.0839 -2.1877,2.7518 -3.6886,5.9685 -4.4837,9.3987 -3.0071,12.9509 -16.1318,18.0124 -16.1318,18.0124 -10.28,5.8008 -18.6984,7.5236 -25.0779,7.5236 -9.3614,0 -14.329,-3.7123 -14.329,-3.7123 l -4.0934,-2.081 -4.0934,2.081 c 0,0 -4.9677,3.7123 -14.3291,3.7123 -6.3786,0 -14.7979,-1.7228 -25.077,-7.5236 0,0 -13.7498,-5.2978 -16.327,-18.9423 -0.5443,-2.8814 -1.8508,-5.5646 -3.7428,-7.798 -2.9103,-3.4455 -6.72087,-9.5512 -7.02578,-18.1496 -0.10824,-3.0491 -1.02144,-6.0067 -2.61763,-8.606 -2.00018,-3.2625 -4.34797,-8.7356 -4.45011,-16.5412 -0.0351,-2.6298 -0.66851,-5.2215 -1.83706,-7.5845 -2.05355,-4.1468 -4.54616,-12.4479 -1.53978,-25.475 0,0 -2.88671,-9.635 2.17017,-19.575 1.34998,-2.6603 2.19533,-5.5417 2.45374,-8.5069 0.3354,-3.8571 1.75855,-9.3149 6.74145,-12.7832 2.1756,-1.5169 4.0606,-3.4074 5.6286,-5.5493 3.1787,-4.3297 9.9628,-10.9767 22.0966,-11.9066 3.3319,-0.2592 6.6096,-0.9605 9.7441,-2.1191 2.1747,-0.808 5.2268,-1.5322 9.1495,-1.5322 2.8028,0 6.0501,0.3659 9.7394,1.3492 9.321,2.4926 12.3602,6.9671 13.3161,10.0619"
       style="fill:#bacdfe;fill-opacity:1;fill-rule:nonzero;stroke:none;stroke-width:0.0762267"
       id="path63932" /><path
       d="M 1391.0976,1078.0929 H 1167.662 c 1.3035,5.435 2.0657,10.9919 2.2715,16.6174 1.517,42.3821 20.566,72.4687 35.1177,89.4368 9.4597,11.03 15.9923,24.2629 18.706,38.4487 12.8899,67.2548 81.6235,93.3853 81.6235,93.3853 50.7136,28.2268 92.3715,36.8861 124.1123,37.1072 v -236.6 c 0,-21.2063 -17.1891,-38.3954 -38.3954,-38.3954"
       style="fill:#bdb6da;fill-opacity:1;fill-rule:nonzero;stroke:none;stroke-width:0.0762267"
       id="path63934" /><path
       d="m 1074.3743,1366.6185 c 0,0 14.0417,10.5041 39.4069,-3.8113 0,0 13.1247,-5.0615 16.1318,-18.0124 0.7951,-3.4302 2.296,-6.6469 4.4837,-9.3987 2.6603,-3.3311 5.8008,-8.728 6.3954,-16.0839 0.3201,-3.8875 1.4559,-7.676 3.3387,-11.0986 2.1953,-4.0019 4.4745,-10.565 3.636,-19.8418 0,0 8.1182,-8.8727 3.5522,-28.6612 0,0 3.7199,-12.4021 -4.6651,-23.5845 0,0 2.0886,-14.2773 -10.0467,-19.0567 0,0 -6.4,-14.849 -25.4627,-15.7484 -2.7617,-0.1296 -5.4739,-0.7623 -8.0343,-1.8066 -3.6299,-1.4788 -10.1481,-2.9195 -19.5133,-0.4269 -15.2194,4.0629 -13.6918,13.4312 -13.6918,13.4312 v 151.8283 l 4.4692,2.2715"
       style="fill:#9db0f4;fill-opacity:1;fill-rule:nonzero;stroke:none;stroke-width:0.0762267"
       id="path63936" /><path
       d="m 1066.1875,1366.6185 c 0,0 -14.0417,10.5041 -39.4061,-3.8113 0,0 -13.7498,-5.2978 -16.327,-18.9423 -0.5443,-2.8814 -1.8508,-5.5646 -3.7428,-7.798 -2.9103,-3.4455 -6.72087,-9.5512 -7.02578,-18.1496 -0.10824,-3.0491 -1.02144,-6.0067 -2.61763,-8.606 -2.00018,-3.2625 -4.34797,-8.7356 -4.45011,-16.5412 -0.0351,-2.6298 -0.66851,-5.2215 -1.83706,-7.5845 -2.05355,-4.1468 -4.54616,-12.4479 -1.53978,-25.475 0,0 -2.88671,-9.635 2.17017,-19.575 1.34998,-2.6603 2.19533,-5.5417 2.45374,-8.5069 0.3354,-3.8571 1.75855,-9.3149 6.74145,-12.7832 2.1756,-1.5169 4.0606,-3.4074 5.6286,-5.5493 3.1787,-4.3297 9.9628,-10.9767 22.0966,-11.9066 3.3319,-0.2592 6.6096,-0.9605 9.7441,-2.1191 3.729,-1.3797 10.0375,-2.5384 18.8889,-0.183 15.2195,4.0629 13.6919,13.4312 13.6919,13.4312 v 151.8283 l -4.4692,2.2715"
       style="fill:#9db0f4;fill-opacity:1;fill-rule:nonzero;stroke:none;stroke-width:0.0762267"
       id="path63938" /><path
       d="m 1030.0256,1259.9012 c 0.013,0.1219 0.3506,3.0414 2.2426,6.4335 1.5077,2.7061 4.2946,6.182 9.2531,8.4231 -2.5841,2.241 -4.864,5.069 -6.791,8.4535 -1.1556,2.0352 -2.0513,4.0248 -2.735,5.7932 -0.8164,2.1191 -1.754,4.3373 -3.9661,4.8328 -2.1374,0.4802 -5.108,1.9895 -6.3779,3.1634 -4.3754,4.04 -4.7611,8.8728 -4.8602,9.0176 0,0 3.5537,-4.5583 8.7996,-6.746 5.6522,-2.3555 10.6877,-2.7899 13.6301,-2.7823 1.7143,0 2.719,0.1448 2.719,0.1448 -0.3949,-0.526 -0.9856,-1.0214 -1.6755,-1.4635 -3.4256,-2.2182 -4.5789,-6.708 -2.5612,-10.2602 l 0.051,-0.084 c 4.2832,-7.4778 10.1763,-11.7313 17.5184,-12.6384 0,0 -3.1161,-0.7241 -6.1438,-0.7241 -0.2516,0 -0.5024,0 -0.7509,0.015 -0.2683,0.015 -0.5358,0.015 -0.8034,0.015 -4.3503,0 -8.5709,-1.5474 -11.8136,-4.4745 -3.896,-3.514 -5.7353,-7.1195 -5.7353,-7.1195"
       style="fill:#5a79bb;fill-opacity:1;fill-rule:nonzero;stroke:none;stroke-width:0.0762267"
       id="path63940" /><path
       d="m 1028.6992,1245.3952 c -0.3506,0 -0.702,0.015 -1.0534,0.038 -4.7543,0.2821 -8.8217,2.5231 -11.7626,6.4946 -4.5781,6.1743 -3.5361,11.7922 -1.8546,15.413 l 0.059,0.1296 c 0.1388,0.2896 0.2653,0.4116 0.3789,0.4116 0.4551,0 0.6914,-2.02 0.6243,-3.3235 -0.1792,-3.4835 2.5299,-8.8651 5.9014,-11.7846 3.9021,-3.3769 10.2228,-3.3006 15.0403,-3.4607 1.8043,-0.061 3.3258,-0.183 1.7159,-1.273 -2.3036,-1.5703 -5.8435,-2.6451 -9.0489,-2.6451"
       style="fill:#5a79bb;fill-opacity:1;fill-rule:nonzero;stroke:none;stroke-width:0.0762267"
       id="path63942" /><path
       d="m 1054.6719,1302.832 c -1.5024,0 -3.0986,0.2516 -4.505,0.7471 -0.2561,0.091 -0.5099,0.1905 -0.7615,0.2972 -3.3981,1.4407 -5.7863,4.1315 -6.9046,7.798 -1.7418,5.6942 0.4772,9.5284 2.6451,11.7389 l 0.076,0.076 c 0.1486,0.1448 0.2607,0.2134 0.3415,0.2134 0.4048,0 0.039,-1.6312 -0.3636,-2.5993 -1.0352,-2.5003 -0.4536,-7.1348 1.2516,-10.1382 1.9743,-3.4759 6.6097,-5.0614 10.0856,-6.4259 1.3012,-0.5183 2.3813,-0.9986 0.9223,-1.3797 -0.8331,-0.2134 -1.7898,-0.3278 -2.7876,-0.3278"
       style="fill:#5a79bb;fill-opacity:1;fill-rule:nonzero;stroke:none;stroke-width:0.0762267"
       id="path63944" /><path
       d="m 1017.266,1226.5291 c -1.1892,0 -2.3447,0.5946 -3.0072,1.677 -5.7619,9.3759 -13.4837,16.1829 -13.582,16.2287 0.4825,-0.2211 11.8974,-5.6179 18.2555,-17.4864 -0.5298,-0.2897 -1.1022,-0.4193 -1.6663,-0.4193"
       style="fill:#5a79bb;fill-opacity:1;fill-rule:nonzero;stroke:none;stroke-width:0.0762267"
       id="path63946" /><path
       d="m 1060.2868,1226.5291 c -1.1404,2.7366 -2.8387,4.5126 -5.0477,5.2749 -0.9437,0.3278 -1.927,0.4498 -2.8822,0.4498 -1.4315,0 -2.7982,-0.2821 -3.8631,-0.587 -1.9568,-0.5641 -3.3555,-1.334 -3.3685,-1.3492 0,0 2.7244,5.3587 7.4146,5.3587 0.046,0 0.094,0 0.141,0 -3.9989,8.3545 3.2457,14.3611 3.3517,14.788 0,0 -1.1693,-4.5355 -1.1602,-7.8818 0.01,-2.8128 0.5351,-6.5022 2.9881,-8.1944 4.1856,-2.5765 2.4263,-7.859 2.4263,-7.859"
       style="fill:#5a79bb;fill-opacity:1;fill-rule:nonzero;stroke:none;stroke-width:0.0762267"
       id="path63948" /><path
       d="m 1016.6447,1320.4861 c -0.8552,0 -1.4384,0.1144 -1.4384,0.1144 2.5788,1.4788 4.1277,3.3844 4.6064,5.6712 0.51,2.4393 -0.2515,4.9776 -0.9803,6.6775 -0.8026,1.8676 -1.7463,3.1558 -1.7562,3.171 0,0 5.765,-2.0733 6.2544,-6.8223 2.1801,1.395 4.2885,1.9057 6.2041,1.9057 4.928,0 8.5793,-3.3463 8.8933,-3.3845 0,0 -2.5101,0.3202 -5.159,0.3202 -0.9551,0 -1.9293,-0.046 -2.8089,-0.1601 -2.7892,-0.3582 -6.3863,-1.3416 -7.7561,-3.9866 -1.369,-3.011 -4.2946,-3.5065 -6.0593,-3.5065"
       style="fill:#5a79bb;fill-opacity:1;fill-rule:nonzero;stroke:none;stroke-width:0.0762267"
       id="path63950" /><path
       d="m 997.14823,1271.1141 c -0.85526,0 -1.4384,0.1144 -1.4384,0.1144 2.57952,1.4788 4.12844,3.3844 4.60637,5.6712 0.51,2.4393 -0.2515,4.9776 -0.98026,6.6699 -0.80267,1.8751 -1.74559,3.1634 -1.7555,3.1786 0,0 5.76506,-2.0734 6.25366,-6.8299 2.1808,1.4026 4.2885,1.9133 6.2048,1.9133 4.9273,0 8.5786,-3.354 8.8934,-3.3845 0,0 -2.5109,0.3202 -5.1598,0.3202 -0.9551,0 -1.9285,-0.046 -2.8089,-0.1601 -2.7884,-0.3583 -6.3863,-1.3416 -7.7561,-3.9867 -1.369,-3.0109 -4.29462,-3.5064 -6.05927,-3.5064"
       style="fill:#5a79bb;fill-opacity:1;fill-rule:nonzero;stroke:none;stroke-width:0.0762267"
       id="path63952" /><path
       d="m 1043.6526,1334.4509 c 0,0 -2.1976,6.5936 3.0293,9.8103 3.0627,2.1115 3.7213,6.7232 3.7305,10.2373 0.011,4.1772 -1.4476,9.8485 -1.4476,9.8485 0.1312,-0.5336 9.1777,-8.0419 4.1849,-18.4774 0.06,0 0.1181,0 0.1768,0 5.855,0 9.2578,-6.6851 9.2578,-6.6851 -0.017,0.01 -1.7624,0.9757 -4.2062,1.6847 -1.3302,0.3811 -3.0361,0.7317 -4.8244,0.7317 -1.1922,0 -2.4202,-0.16 -3.5987,-0.564 -2.7586,-0.9453 -4.8792,-3.1635 -6.3024,-6.586"
       style="fill:#5a79bb;fill-opacity:1;fill-rule:nonzero;stroke:none;stroke-width:0.0762267"
       id="path63954" /><path
       d="m 1024.6417,1208.7531 c 0,0 -2.0513,6.1667 2.828,9.17 2.86,1.9667 3.4744,6.2735 3.4835,9.5512 0.011,3.9028 -1.3522,9.193 -1.3522,9.193 0.1235,-0.5031 8.5686,-7.5084 3.9081,-17.2501 0.054,0 0.109,0 0.1632,0 5.4677,0 8.6448,-6.2354 8.6448,-6.2354 -0.016,0.01 -1.6457,0.9071 -3.9272,1.5627 -1.2425,0.3582 -2.8348,0.686 -4.5042,0.686 -1.1129,0 -2.2601,-0.1448 -3.3601,-0.5259 -2.5749,-0.8843 -4.5545,-2.95 -5.8839,-6.1515"
       style="fill:#5a79bb;fill-opacity:1;fill-rule:nonzero;stroke:none;stroke-width:0.0762267"
       id="path63956" /><path
       d="m 1110.4104,1259.9012 c 0,0 -1.8393,3.6055 -5.736,7.1195 -3.242,2.9271 -7.4626,4.4745 -11.8129,4.4745 -0.2675,0 -0.5351,0 -0.8034,-0.015 -0.2485,-0.015 -0.5001,-0.015 -0.7509,-0.015 -3.0284,0 -6.1438,0.7241 -6.1438,0.7241 7.3414,0.9071 13.236,5.1606 17.5176,12.6384 l 0.051,0.084 c 2.0178,3.5522 0.8652,8.042 -2.5604,10.2602 -0.6899,0.4421 -1.2814,0.9375 -1.6755,1.4635 0,0 1.0047,-0.1448 2.719,-0.1448 2.9424,0 7.9779,0.4268 13.6294,2.7823 5.2459,2.1877 8.7996,6.746 8.7996,6.746 -0.099,-0.1448 -0.4841,-4.9776 -4.8595,-9.0176 -1.2707,-1.1739 -4.2412,-2.6832 -6.3779,-3.1634 -2.2121,-0.4955 -3.1504,-2.7137 -3.9661,-4.8328 -0.6837,-1.7684 -1.5794,-3.758 -2.735,-5.7932 -1.9262,-3.3845 -4.2069,-6.2125 -6.791,-8.4535 4.9578,-2.2411 7.7454,-5.717 9.2524,-8.4231 1.8919,-3.3921 2.2296,-6.3116 2.2433,-6.4335"
       style="fill:#5a79bb;fill-opacity:1;fill-rule:nonzero;stroke:none;stroke-width:0.0762267"
       id="path63958" /><path
       d="m 1111.7368,1245.3952 c -3.2054,0 -6.7453,1.0748 -9.0489,2.6451 -1.6099,1.09 -0.088,1.212 1.7159,1.273 4.8175,0.1601 11.1382,0.084 15.0402,3.4607 3.3715,2.9195 6.0806,8.3011 5.9015,11.7846 -0.067,1.3035 0.1692,3.3235 0.6243,3.3235 0.1136,0 0.2401,-0.122 0.3796,-0.4116 l 0.058,-0.1296 c 1.6808,-3.6208 2.7236,-9.2387 -1.8538,-15.413 -2.9416,-3.9715 -7.0091,-6.2125 -11.7626,-6.4946 -0.3521,-0.023 -0.7035,-0.038 -1.0542,-0.038"
       style="fill:#5a79bb;fill-opacity:1;fill-rule:nonzero;stroke:none;stroke-width:0.0762267"
       id="path63960" /><path
       d="m 1085.764,1302.832 c -0.9978,0 -1.9544,0.1144 -2.7876,0.3278 -1.4589,0.3811 -0.3796,0.8614 0.9224,1.3797 3.4759,1.3645 8.1113,2.95 10.0848,6.4259 1.7052,3.0034 2.2875,7.6379 1.2524,10.1382 -0.4025,0.9681 -0.7676,2.5993 -0.3636,2.5993 0.081,0 0.1928,-0.069 0.3415,-0.2134 l 0.075,-0.076 c 2.1679,-2.2105 4.3868,-6.0447 2.6458,-11.7389 -1.119,-3.6665 -3.5064,-6.3573 -6.9046,-7.798 -0.2516,-0.1067 -0.5062,-0.2058 -0.7615,-0.2972 -1.4072,-0.4955 -3.0026,-0.7471 -4.505,-0.7471"
       style="fill:#5a79bb;fill-opacity:1;fill-rule:nonzero;stroke:none;stroke-width:0.0762267"
       id="path63962" /><path
       d="m 1122.0228,1231.5296 c -0.9445,0 -1.8851,0.3735 -2.578,1.1129 9.8195,9.2158 22.3611,10.6794 22.8871,10.7403 -0.1068,-0.015 -9.597,-3.9942 -18.0559,-11.0376 -0.657,-0.5488 -1.4566,-0.8156 -2.2532,-0.8156"
       style="fill:#5a79bb;fill-opacity:1;fill-rule:nonzero;stroke:none;stroke-width:0.0762267"
       id="path63964" /><path
       d="m 1080.1499,1226.5291 c 0,0 -1.76,5.2825 2.4256,7.859 2.4537,1.6922 2.9804,5.3816 2.9873,8.1944 0.01,3.3463 -1.1586,7.8818 -1.1586,7.8818 0.1052,-0.4269 7.3497,-6.4335 3.3516,-14.788 0.047,0 0.094,0 0.1403,0 4.6902,0 7.4153,-5.3587 7.4153,-5.3587 -0.014,0.015 -1.4124,0.7851 -3.3692,1.3492 -1.0649,0.3049 -2.4316,0.587 -3.8639,0.587 -0.9544,0 -1.9385,-0.122 -2.8814,-0.4498 -2.2098,-0.7623 -3.9074,-2.5383 -5.047,-5.2749"
       style="fill:#5a79bb;fill-opacity:1;fill-rule:nonzero;stroke:none;stroke-width:0.0762267"
       id="path63966" /><path
       d="m 1123.7912,1320.4861 c -1.7646,0 -4.6902,0.4955 -6.0592,3.5065 -1.3706,2.645 -4.9669,3.6284 -7.7561,3.9866 -0.8796,0.1144 -1.8538,0.1601 -2.8089,0.1601 -2.6489,0 -5.1598,-0.3202 -5.1598,-0.3202 0.3148,0.038 3.9653,3.3845 8.8934,3.3845 1.9155,0 4.024,-0.5107 6.2048,-1.9057 0.4886,4.749 6.2536,6.8223 6.2536,6.8223 -0.01,-0.015 -0.9528,-1.3034 -1.7555,-3.171 -0.7287,-1.6999 -1.4902,-4.2382 -0.9802,-6.6775 0.4779,-2.2868 2.0276,-4.1924 4.6063,-5.6712 0,0 -0.5831,-0.1144 -1.4384,-0.1144"
       style="fill:#5a79bb;fill-opacity:1;fill-rule:nonzero;stroke:none;stroke-width:0.0762267"
       id="path63968" /><path
       d="m 1143.2847,1271.1141 c -1.7608,0 -4.6879,0.4955 -6.06,3.5064 -1.3645,2.6451 -4.9624,3.6284 -7.753,3.9867 -0.8797,0.1143 -1.8531,0.1601 -2.8082,0.1601 -2.6489,0 -5.1598,-0.3202 -5.1598,-0.3202 0.3148,0.03 3.9653,3.3845 8.8934,3.3845 1.9186,0 4.0224,-0.5107 6.2025,-1.9133 0.4879,4.7565 6.2582,6.8299 6.2582,6.8299 -0.015,-0.015 -0.9528,-1.3035 -1.7608,-3.1786 -0.7242,-1.6923 -1.4864,-4.2306 -0.9757,-6.6699 0.4726,-2.2868 2.0276,-4.1924 4.6041,-5.6712 0,0 -0.5793,-0.1144 -1.4407,-0.1144"
       style="fill:#5a79bb;fill-opacity:1;fill-rule:nonzero;stroke:none;stroke-width:0.0762267"
       id="path63970" /><path
       d="m 1096.7834,1334.4509 c -1.4232,3.4225 -3.5438,5.6407 -6.3025,6.586 -1.1784,0.404 -2.4072,0.564 -3.5994,0.564 -1.7875,0 -3.4934,-0.3506 -4.8228,-0.7317 -2.4446,-0.709 -4.1902,-1.677 -4.207,-1.6847 0,0 3.4028,6.6851 9.2577,6.6851 0.059,0 0.1174,0 0.1761,0 -4.9921,10.4355 4.0545,17.9438 4.1864,18.4774 0,0 -1.4597,-5.6713 -1.4483,-9.8485 0.01,-3.5141 0.667,-8.1258 3.7305,-10.2373 5.2269,-3.2167 3.0293,-9.8103 3.0293,-9.8103"
       style="fill:#5a79bb;fill-opacity:1;fill-rule:nonzero;stroke:none;stroke-width:0.0762267"
       id="path63972" /><path
       d="m 1115.7935,1208.7531 c -1.3286,3.2015 -3.309,5.2672 -5.8839,6.1515 -1.0992,0.3811 -2.2464,0.5259 -3.3593,0.5259 -1.6694,0 -3.2625,-0.3278 -4.5042,-0.686 -2.2807,-0.6556 -3.9112,-1.555 -3.9272,-1.5627 0,0 3.1771,6.2354 8.6441,6.2354 0.054,0 0.109,0 0.1639,0 -4.6605,9.7417 3.7846,16.747 3.9073,17.2501 0,0 -1.3614,-5.2902 -1.3515,-9.193 0.01,-3.2777 0.6236,-7.5845 3.4828,-9.5512 4.8793,-3.0033 2.828,-9.17 2.828,-9.17"
       style="fill:#5a79bb;fill-opacity:1;fill-rule:nonzero;stroke:none;stroke-width:0.0762267"
       id="path63974" /><path
       d="m 1071.9929,1209.1494 h -1.7113 c 0.6038,1.9591 0.3751,3.3693 0.3751,3.3693 v 151.8283 l 1.712,-0.01 -0.3758,-155.1899"
       style="fill:#5a79bb;fill-opacity:1;fill-rule:nonzero;stroke:none;stroke-width:0.0762267"
       id="path63976" /><path
       d="m 1070.2816,1209.1494 -1.7128,0.01 0.3758,155.1899 h 1.7121 V 1212.521 c 0,0 0.2287,-1.4102 -0.3751,-3.3693"
       style="fill:#5a79bb;fill-opacity:1;fill-rule:nonzero;stroke:none;stroke-width:0.0762267"
       id="path63978" /><path
       d="m 1295.4332,1364.347 h -128.1981 v 13.0576 h 128.1981 v -13.0576"
       style="fill:#2b478b;fill-opacity:1;fill-rule:nonzero;stroke:none;stroke-width:0.0762267"
       id="path63980" /><path
       d="m 1269.8515,1339.3599 h -102.6164 v 6.525 h 102.6164 v -6.525"
       style="fill:#9db0f4;fill-opacity:1;fill-rule:nonzero;stroke:none;stroke-width:0.0762267"
       id="path63982" /><path
       d="m 1234.2308,1321.7744 h -66.9957 v 6.5326 h 66.9957 v -6.5326"
       style="fill:#2b478b;fill-opacity:1;fill-rule:nonzero;stroke:none;stroke-width:0.0762267"
       id="path63984" /><path
       d="m 1311.2502,1321.7744 h -66.9956 v 6.5326 h 66.9956 v -6.5326"
       style="fill:#9db0f4;fill-opacity:1;fill-rule:nonzero;stroke:none;stroke-width:0.0762267"
       id="path63986" /><path
       d="m 1342.1982,1339.3599 h -61.896 v 6.525 h 61.896 v -6.525"
       style="fill:#2b478b;fill-opacity:1;fill-rule:nonzero;stroke:none;stroke-width:0.0762267"
       id="path63988" /><path
       d="m 1362.6041,1364.347 h -59.5025 v 13.0576 h 59.5025 v -13.0576"
       style="fill:#f78248;fill-opacity:1;fill-rule:nonzero;stroke:none;stroke-width:0.0762267"
       id="path63990" /><path
       d="M 1087.4433,1155.4249 H 985.05182 v 10.4278 h 102.39148 v -10.4278"
       style="fill:#2b478b;fill-opacity:1;fill-rule:nonzero;stroke:none;stroke-width:0.0762267"
       id="path63992" /><path
       d="m 1067.0092,1135.4687 h -81.95738 v 5.2139 h 81.95738 v -5.2139"
       style="fill:#9db0f4;fill-opacity:1;fill-rule:nonzero;stroke:none;stroke-width:0.0762267"
       id="path63994" /><path
       d="m 1038.5591,1121.4202 h -53.50728 v 5.2139 h 53.50728 v -5.2139"
       style="fill:#9db0f4;fill-opacity:1;fill-rule:nonzero;stroke:none;stroke-width:0.0762267"
       id="path63996" /><path
       d="m 1100.0764,1121.4202 h -53.5074 v 5.2139 h 53.5074 v -5.2139"
       style="fill:#2b478b;fill-opacity:1;fill-rule:nonzero;stroke:none;stroke-width:0.0762267"
       id="path63998" /><path
       d="m 1124.7913,1135.4687 h -49.4299 v 5.2139 h 49.4299 v -5.2139"
       style="fill:#9db0f4;fill-opacity:1;fill-rule:nonzero;stroke:none;stroke-width:0.0762267"
       id="path64000" /><path
       d="m 1141.0894,1155.4249 h -47.519 v 10.4278 h 47.519 v -10.4278"
       style="fill:#f78248;fill-opacity:1;fill-rule:nonzero;stroke:none;stroke-width:0.0762267"
       id="path64002" /><path
       d="m 1296.1116,1285.0865 c 3.0338,-3.0034 3.0643,-7.9047 0.061,-10.9386 -2.9957,-3.0338 -7.8971,-3.0643 -10.9309,-0.069 -3.0415,3.0034 -3.0643,7.8971 -0.069,10.9386 3.0033,3.0338 7.897,3.0643 10.9385,0.069"
       style="fill:#ffffff;fill-opacity:1;fill-rule:nonzero;stroke:none;stroke-width:0.0762267"
       id="path64004" /><path
       d="m 1265.1635,1252.5224 c 3.3769,-3.3387 3.4074,-8.7889 0.069,-12.1658 -3.3387,-3.3844 -8.7813,-3.4149 -12.1657,-0.076 -3.3769,3.3388 -3.4074,8.789 -0.069,12.1658 3.3387,3.3845 8.7813,3.415 12.1657,0.076"
       style="fill:#ffffff;fill-opacity:1;fill-rule:nonzero;stroke:none;stroke-width:0.0762267"
       id="path64006" /><path
       d="m 1226.9435,1269.6353 c 2.889,-2.8509 2.9118,-7.5007 0.061,-10.3821 -2.8509,-2.8889 -7.4931,-2.9118 -10.3821,-0.061 -2.8814,2.8508 -2.9119,7.493 -0.061,10.382 2.8509,2.8814 7.5007,2.9119 10.3821,0.061"
       style="fill:#ffffff;fill-opacity:1;fill-rule:nonzero;stroke:none;stroke-width:0.0762267"
       id="path64008" /><path
       d="m 1192.207,1249.7249 c 2.8814,-2.8509 2.9118,-7.5007 0.061,-10.3821 -2.8509,-2.889 -7.5007,-2.9118 -10.3821,-0.061 -2.889,2.8432 -2.9119,7.493 -0.061,10.382 2.8509,2.8814 7.5007,2.9119 10.3821,0.061"
       style="fill:#ffffff;fill-opacity:1;fill-rule:nonzero;stroke:none;stroke-width:0.0762267"
       id="path64010" /><path
       d="m 1186.7187,1245.0675 35.0414,20.0857 37.2062,-17.959 31.2377,32.8384 0.9452,-0.8994 -31.8932,-33.5245 -37.4426,18.0657 -34.4392,-19.7427 -0.6555,1.1358"
       style="fill:#ffffff;fill-opacity:1;fill-rule:nonzero;stroke:none;stroke-width:0.0762267"
       id="path64012" /><path
       d="m 1314.5203,1233.824 c -2.889,2.0353 -3.5827,6.0372 -1.5474,8.9262 2.0429,2.8966 6.0371,3.5902 8.9338,1.555 2.8889,-2.0429 3.5826,-6.0372 1.5474,-8.9338 -2.0353,-2.8966 -6.0372,-3.5903 -8.9338,-1.5474"
       style="fill:#ffffff;fill-opacity:1;fill-rule:nonzero;stroke:none;stroke-width:0.0762267"
       id="path64014" /><path
       d="m 1335.3759,1264.673 c -3.2244,2.2715 -3.9943,6.7155 -1.7227,9.9399 2.2639,3.2168 6.7156,3.9867 9.9323,1.7227 3.2168,-2.2715 3.9943,-6.7155 1.7227,-9.9399 -2.2639,-3.2168 -6.7155,-3.9867 -9.9323,-1.7227"
       style="fill:#ffffff;fill-opacity:1;fill-rule:nonzero;stroke:none;stroke-width:0.0762267"
       id="path64016" /><path
       d="m 1368.9538,1255.9069 c -2.7442,1.9362 -3.4074,5.7322 -1.4712,8.484 1.9361,2.7442 5.7322,3.4074 8.484,1.4712 2.7442,-1.9362 3.4074,-5.7322 1.4712,-8.484 -1.9362,-2.7442 -5.7323,-3.4074 -8.484,-1.4712"
       style="fill:#ffffff;fill-opacity:1;fill-rule:nonzero;stroke:none;stroke-width:0.0762267"
       id="path64018" /><path
       d="m 1394.6345,1276.9378 c -2.7517,1.9362 -3.4073,5.7323 -1.4711,8.4764 1.9361,2.7518 5.7322,3.4074 8.484,1.4712 2.7442,-1.9285 3.3997,-5.7322 1.4635,-8.4764 -1.9285,-2.7518 -5.7322,-3.4073 -8.4764,-1.4712"
       style="fill:#ffffff;fill-opacity:1;fill-rule:nonzero;stroke:none;stroke-width:0.0762267"
       id="path64020" /><path
       d="m 1398.484,1281.4962 -25.9018,-21.2063 -32.8766,9.5817 -21.0462,-31.1157 -0.8919,0.6098 21.4883,31.7713 33.0824,-9.6503 25.4597,20.848 0.6861,-0.8385"
       style="fill:#ffffff;fill-opacity:1;fill-rule:nonzero;stroke:none;stroke-width:0.0762267"
       id="path64022" /><path
       d="m 1246.9377,1128.555 -7.4702,39.2262 -3.2625,-16.7546 h -44.0209 v 2.6451 h 41.8408 l 5.4731,28.1276 7.8056,-41.0176 3.5141,13.8428 h 7.6074 l 5.1834,24.1486 6.6394,-36.8175 3.4911,14.0943 h 15.6951 l 5.778,18.95 5.0614,-33.1739 4.0629,14.2239 h 12.989 l 3.819,20.8099 8.202,-32.7317 2.9652,11.9218 h 16.8004 l 0.8842,-9.9323 9.2539,36.1772 6.0753,-26.3363 h 27.3272 v -2.6527 h -29.4311 l -4.1086,17.776 -10.3897,-40.6364 -2.0352,22.9595 h -12.303 l -5.0386,-20.2077 -7.8056,31.1538 -2.0048,-10.9461 h -13.2024 l -6.8528,-23.9962 -5.1301,33.677 -2.9499,-9.6808 h -15.5884 l -5.9762,-24.1258 -6.4564,35.8189 -2.8204,-13.1186 h -7.676 l -5.9457,-23.4244"
       style="fill:#ffffff;fill-opacity:1;fill-rule:nonzero;stroke:none;stroke-width:0.0762267"
       id="path64024" /><path
       d="m 1180.43,1104.2234 h 223.0621 v 92.7831 H 1180.43 Z m 224.5256,-1.4635 H 1178.974 v 95.7026 h 225.9816 v -95.7026"
       style="fill:#ffffff;fill-opacity:1;fill-rule:nonzero;stroke:none;stroke-width:0.0762267"
       id="path64026" /><g
       id="g64028"
       transform="matrix(0.12695859,0,0,0.12695859,369.14175,248.66281)"><path
         d="M 16281.6,892.743 H 1515.42 c -10.13,0 -18.42,8.286 -18.42,18.434 v 10.507 c 0,10.146 8.29,18.432 18.42,18.432 H 16281.6 c 10.1,0 18.4,-8.286 18.4,-18.432 v -10.507 c 0,-10.148 -8.3,-18.434 -18.4,-18.434"
         style="fill:#233862;fill-opacity:1;fill-rule:nonzero;stroke:none"
         id="path64030" /></g></g></svg>
